<?xml version="1.0" standalone="no"?>
<!DOCTYPE svg PUBLIC "-//W3C//DTD SVG 20010904//EN"
 "http://www.w3.org/TR/2001/REC-SVG-20010904/DTD/svg10.dtd">
<svg version="1.0" xmlns="http://www.w3.org/2000/svg"
 width="300.000000pt" height="300.000000pt" viewBox="0 0 300.000000 300.000000"
 preserveAspectRatio="xMidYMid meet">
<metadata>
Created by potrace 1.10, written by Peter Selinger 2001-2011
</metadata>
<g transform="translate(0.000000,300.000000) scale(0.050000,-0.050000)"
fill="#000000" stroke="none">
<path d="M2520 5570 l-410 -410 1530 -1530 1530 -1530 415 415 415 415 -1525
1525 c-839 839 -1530 1525 -1535 1525 -6 0 -195 -185 -420 -410z"/>
<path d="M1861 4911 c-152 -153 -165 -172 -140 -205 16 -20 702 -710 1526
-1534 l1497 -1497 178 177 178 178 -1525 1525 c-839 839 -1530 1525 -1535
1525 -6 0 -86 -76 -179 -169z"/>
<path d="M1495 4545 l-114 -116 1529 -1529 1529 -1529 121 119 121 119 -1526
1526 c-839 839 -1530 1525 -1536 1525 -5 0 -62 -52 -124 -115z"/>
<path d="M1230 4280 l-79 -81 1529 -1529 1529 -1529 86 84 86 84 -1526 1526
c-838 839 -1530 1525 -1536 1525 -6 0 -46 -36 -89 -80z"/>
<path d="M985 4035 l-84 -86 1529 -1529 1529 -1529 91 89 91 89 -1526 1526
c-838 839 -1530 1525 -1536 1525 -6 0 -48 -38 -94 -85z"/>
<path d="M774 3824 l-53 -55 1529 -1529 1529 -1529 61 59 61 59 -1525 1525
c-839 839 -1531 1526 -1537 1526 -6 0 -35 -25 -65 -56z"/>
<path d="M594 3644 l-53 -55 1529 -1529 1529 -1529 61 59 61 59 -1525 1525
c-839 839 -1531 1526 -1537 1526 -6 0 -35 -25 -65 -56z"/>
<path d="M414 3464 l-53 -55 1529 -1529 1528 -1528 51 47 c28 27 51 58 51 70
0 21 -3020 3051 -3041 3051 -6 0 -35 -25 -65 -56z"/>
<path d="M263 3314 c-26 -32 3018 -3088 3055 -3065 12 7 22 24 22 37 0 24
-3019 3054 -3043 3054 -6 0 -22 -12 -34 -26z"/>
<path d="M143 3194 c-36 -44 3023 -3090 3067 -3054 30 24 -2979 3080 -3033
3080 -6 0 -22 -12 -34 -26z"/>
<path d="M23 3074 c-36 -44 3023 -3090 3067 -3054 30 24 -2979 3080 -3033
3080 -6 0 -22 -12 -34 -26z"/>
</g>
</svg>
