<?xml version="1.0" encoding="UTF-8"?>
<svg version="1.1" xmlns="http://www.w3.org/2000/svg" width="1180" height="1184">
<path d="M0 0 C389.4 0 778.8 0 1180 0 C1180 390.72 1180 781.44 1180 1184 C790.6 1184 401.2 1184 0 1184 C0 793.28 0 402.56 0 0 Z " fill="#FEFEFE" transform="translate(0,0)"/>
<path d="M0 0 C1.65701839 0.00421801 3.31403683 0.00841583 4.97105533 0.01259345 C45.70881934 0.13669195 86.36435159 1.62974619 127.04447807 3.7078936 C153.40323469 5.05436847 179.74788856 6.01331175 206.1340332 6.62231445 C207.01157425 6.64270101 207.8891153 6.66308757 208.7932485 6.6840919 C217.61181597 6.88859229 226.43052457 7.08632392 235.24935537 7.27911508 C253.18896641 7.67145189 271.12738707 8.1087404 289.06526184 8.5735321 C290.30039019 8.60545202 290.30039019 8.60545202 291.56047063 8.63801678 C345.86723658 10.04661339 400.13498177 12.50361591 454.39453125 15.13671875 C457.10279989 70.199751 459.59925683 125.2690399 461.04240417 180.38130188 C461.06407913 181.20687918 461.08575409 182.03245649 461.10808587 182.88305128 C461.57881199 200.85821877 462.0136058 218.83408946 462.41178798 236.81100647 C462.60748898 245.63661053 462.81106584 254.46202504 463.01879883 263.28735352 C463.039328 264.1652248 463.05985717 265.04309609 463.08100844 265.94756954 C463.70067997 292.29947909 464.74192993 318.60584188 466.10492428 344.92923507 C468.20190973 385.55935977 469.61234017 426.16267723 469.71987041 466.85057328 C469.72433364 468.50816523 469.72964418 470.16575511 469.73579995 471.82334163 C470.03972202 554.77207261 464.32254455 622.52476668 400.24869765 690.74491137 C369.16109115 721.90418721 334.1898737 749.08026095 297.39453125 773.13671875 C293.94830563 771.65194344 291.71361482 769.70530738 289.06975579 767.06034029 C288.20501655 766.20009563 287.34027731 765.33985097 286.44933385 764.4535383 C285.49239111 763.49146402 284.53553976 762.52929883 283.57876968 761.56705284 C282.55639284 760.5461549 281.53357731 759.52569614 280.51036221 758.50563836 C277.68464421 755.68607702 274.86523249 752.86028106 272.04675982 750.0334797 C268.98519418 746.96506201 265.91784519 743.90243515 262.85121036 740.83908522 C257.47237591 735.46440467 252.09728191 730.08600577 246.72458839 724.70518684 C238.73551984 716.70406951 230.7407463 708.70867116 222.74477271 700.71445514 C209.2957403 687.26805331 195.85137616 673.81699301 182.40964508 660.36329269 C169.09617928 647.03800221 155.78065583 633.71477345 142.4623642 620.39430618 C141.63499013 619.56679463 140.80761606 618.73928309 139.95517005 617.88669543 C135.75352844 613.68437717 131.55184989 609.48209585 127.35015711 605.27982874 C97.57172267 575.49719089 67.79793016 545.70991646 38.02685547 515.91992188 C9.10048967 486.97519421 -19.827971 458.03256288 -48.75927734 429.09277344 C-49.65070262 428.20108511 -50.54212789 427.30939678 -51.46056606 426.3906876 C-60.41243845 417.43617821 -69.36435353 408.4817115 -78.31629988 399.52727605 C-96.55325669 381.2852465 -114.78992857 363.04293212 -133.02642822 344.80044556 C-133.86495595 343.96164325 -134.70348368 343.12284094 -135.56742134 342.25862038 C-191.58487636 286.22275684 -247.59568855 230.18025342 -303.60546875 174.13671875 C-265.61141903 96.23589002 -186.46170323 15.76218168 0 0 Z " fill="#00E8D3" transform="translate(725.60546875,-15.13671875)"/>
<path d="M0 0 C197.34 0 394.68 0 598 0 C598 197.34 598 394.68 598 598 C593.93133399 594.51257199 590.09411318 591.21911701 586.34110123 587.46645039 C585.0467803 586.17588474 585.0467803 586.17588474 583.72631148 584.85924706 C582.79653241 583.92712683 581.86675335 582.99500661 580.90879917 582.03464031 C579.89294451 581.01982999 578.87687105 580.00523866 577.86059991 578.99084541 C575.06984428 576.20397939 572.28220373 573.41401564 569.49506523 570.62353279 C566.46191171 567.58784137 563.42585978 564.55505101 560.39017767 561.52188855 C555.07070149 556.20602441 549.75308894 550.88830172 544.43669319 545.56935692 C536.53137756 537.66026118 528.62320897 529.75402268 520.71447414 521.84834617 C506.59186005 507.73100004 492.47211076 493.61079137 478.35357428 479.48936741 C466.00207448 467.13535383 453.64964786 454.7822679 441.29629326 442.43010902 C440.0680186 441.20194895 440.0680186 441.20194895 438.81493032 439.94897756 C435.49116798 436.62552654 432.1674021 433.30207906 428.8436304 429.9786374 C397.65949258 398.79755921 366.478273 367.61356423 335.29835567 336.42826577 C307.57399437 308.69915613 279.84704529 280.97263657 252.11791992 253.24829102 C220.9812645 222.11698481 189.84621832 190.98407064 158.71378416 159.84854299 C155.39819142 156.53262952 152.08259474 153.21672 148.76699638 149.90081215 C147.95057995 149.08431664 147.13416352 148.26782113 146.2930072 147.42658333 C133.94197207 135.07440876 121.58969974 122.7234723 109.23683357 110.37312889 C95.20160276 96.34075009 81.16814536 82.30660051 67.13706101 68.27007558 C59.27570855 60.4057758 51.41296765 52.54287011 43.54826245 44.6819232 C38.30560046 39.44149125 33.0647361 34.19926623 27.82537654 28.95553252 C24.83336452 25.96112501 21.84054159 22.96753972 18.84555007 19.97611203 C16.12746389 17.26122749 13.41164011 14.54410204 10.69769587 11.82507717 C9.71542216 10.84178634 8.73228815 9.85935408 7.7482459 8.87783314 C6.42369836 7.55644197 5.10246738 6.23172872 3.78145462 4.90680379 C3.04554441 4.17082581 2.3096342 3.43484784 1.55142367 2.67656751 C0 1 0 1 0 0 Z " fill="#FFFFFF" transform="translate(582,0)"/>
<path d="M0 0 C3.44622562 1.48477531 5.68091643 3.43141137 8.32477546 6.07637846 C9.1895147 6.93662312 10.05425394 7.79686778 10.9451974 8.68318045 C11.90214014 9.64525473 12.85899149 10.60741992 13.81576157 11.56966591 C14.83813841 12.59056385 15.86095394 13.61102261 16.88416904 14.63108039 C19.70988704 17.45064173 22.52929876 20.27643769 25.34777143 23.10323905 C28.40933707 26.17165674 31.47668606 29.2342836 34.54332089 32.29763353 C39.92215534 37.67231408 45.29724934 43.05071298 50.66994286 48.43153191 C58.65901141 56.43264924 66.65378495 64.42804759 74.64975854 72.42226361 C88.09879095 85.86866544 101.54315509 99.31972574 114.98488617 112.77342606 C128.29835197 126.09871654 141.61387542 139.4219453 154.93216705 152.74241257 C155.75954112 153.56992412 156.58691519 154.39743566 157.4393612 155.25002332 C161.64100281 159.45234158 165.84268136 163.6546229 170.04437414 167.85689001 C199.82280858 197.63952786 229.59660109 227.42680229 259.36767578 257.21679688 C288.29404158 286.16152454 317.22250225 315.10415587 346.15380859 344.04394531 C347.04523387 344.93563364 347.93665914 345.82732197 348.85509731 346.74603115 C357.8069697 355.70054054 366.75888478 364.65500725 375.71083113 373.6094427 C393.94778794 391.85147225 412.18445982 410.09378663 430.42095947 428.33627319 C431.67875106 429.59447665 431.67875106 429.59447665 432.96195259 430.87809837 C488.97940761 486.91396191 544.9902198 542.95646533 601 599 C599.06558523 603.22142465 596.16605372 606.10074202 592.89794922 609.32910156 C592.27342865 609.95391418 591.64890808 610.57872681 591.00546265 611.22247314 C588.9432435 613.28330069 586.8740341 615.33695653 584.8046875 617.390625 C583.37221453 618.81936725 581.94018293 620.24855215 580.50857544 621.67816162 C576.74168516 625.43742017 572.96882707 629.19063357 569.19470215 632.94262695 C565.34363269 636.77322817 561.49822729 640.60950595 557.65234375 644.4453125 C550.10710066 651.96911378 542.55554189 659.48654202 535 667 C531.55377438 665.51522469 529.31908357 663.56858863 526.67522454 660.92362154 C525.8104853 660.06337688 524.94574606 659.20313222 524.0548026 658.31681955 C523.09785986 657.35474527 522.14100851 656.39258008 521.18423843 655.43033409 C520.16186159 654.40943615 519.13904606 653.38897739 518.11583096 652.36891961 C515.29011296 649.54935827 512.47070124 646.72356231 509.65222857 643.89676095 C506.59066293 640.82834326 503.52331394 637.7657164 500.45667911 634.70236647 C495.07784466 629.32768592 489.70275066 623.94928702 484.33005714 618.56846809 C476.34098859 610.56735076 468.34621505 602.57195241 460.35024146 594.57773639 C446.90120905 581.13133456 433.45684491 567.68027426 420.01511383 554.22657394 C406.70164803 540.90128346 393.38612458 527.5780547 380.06783295 514.25758743 C379.24045888 513.43007588 378.41308481 512.60256434 377.5606388 511.74997668 C373.35899719 507.54765842 369.15731864 503.3453771 364.95562586 499.14310999 C335.17719142 469.36047214 305.40339891 439.57319771 275.63232422 409.78320312 C246.70595842 380.83847546 217.77749775 351.89584413 188.84619141 322.95605469 C187.95476613 322.06436636 187.06334086 321.17267803 186.14490269 320.25396885 C177.1930303 311.29945946 168.24111522 302.34499275 159.28916887 293.3905573 C141.05221206 275.14852775 122.81554018 256.90621337 104.57904053 238.66372681 C103.32124894 237.40552335 103.32124894 237.40552335 102.03804741 236.12190163 C46.02059239 180.08603809 -9.9902198 124.04353467 -66 68 C-64.06558523 63.77857535 -61.16605372 60.89925798 -57.89794922 57.67089844 C-57.27342865 57.04608582 -56.64890808 56.42127319 -56.00546265 55.77752686 C-53.9432435 53.71669931 -51.8740341 51.66304347 -49.8046875 49.609375 C-48.37221453 48.18063275 -46.94018293 46.75144785 -45.50857544 45.32183838 C-41.74168516 41.56257983 -37.96882707 37.80936643 -34.19470215 34.05737305 C-30.34363269 30.22677183 -26.49822729 26.39049405 -22.65234375 22.5546875 C-15.10710066 15.03088622 -7.55554189 7.51345798 0 0 Z " fill="#00E8D3" transform="translate(409,170)"/>
<path d="M0 0 C3.44622562 1.48477531 5.68091643 3.43141137 8.32477546 6.07637846 C9.1895147 6.93662312 10.05425394 7.79686778 10.9451974 8.68318045 C11.90214014 9.64525473 12.85899149 10.60741992 13.81576157 11.56966591 C14.83813841 12.59056385 15.86095394 13.61102261 16.88416904 14.63108039 C19.70988704 17.45064173 22.52929876 20.27643769 25.34777143 23.10323905 C28.40933707 26.17165674 31.47668606 29.2342836 34.54332089 32.29763353 C39.92215534 37.67231408 45.29724934 43.05071298 50.66994286 48.43153191 C58.65901141 56.43264924 66.65378495 64.42804759 74.64975854 72.42226361 C88.09879095 85.86866544 101.54315509 99.31972574 114.98488617 112.77342606 C128.29835197 126.09871654 141.61387542 139.4219453 154.93216705 152.74241257 C155.75954112 153.56992412 156.58691519 154.39743566 157.4393612 155.25002332 C161.64100281 159.45234158 165.84268136 163.6546229 170.04437414 167.85689001 C199.82280858 197.63952786 229.59660109 227.42680229 259.36767578 257.21679688 C288.29404158 286.16152454 317.22250225 315.10415587 346.15380859 344.04394531 C347.04523387 344.93563364 347.93665914 345.82732197 348.85509731 346.74603115 C357.8069697 355.70054054 366.75888478 364.65500725 375.71083113 373.6094427 C393.94778794 391.85147225 412.18445982 410.09378663 430.42095947 428.33627319 C431.67875106 429.59447665 431.67875106 429.59447665 432.96195259 430.87809837 C488.97940761 486.91396191 544.9902198 542.95646533 601 599 C599.38773372 602.40601712 597.60239912 604.64072901 594.91748047 607.30957031 C594.07675995 608.15013977 593.23603943 608.99070923 592.36984253 609.85675049 C591.46146637 610.75480408 590.55309021 611.65285767 589.6171875 612.578125 C588.22308151 613.96798615 588.22308151 613.96798615 586.80081177 615.38592529 C584.3359615 617.84315789 581.86516334 620.29432361 579.39306641 622.7442627 C576.86909235 625.24773809 574.35080612 627.75692063 571.83203125 630.265625 C566.89356403 635.18267525 561.948788 640.09333788 557 645 C550.94852084 639.98788386 545.4066779 634.54581275 539.86194706 628.98499489 C538.84097674 627.9647651 537.81978697 626.94475488 536.79839894 625.92494327 C533.99343503 623.12304039 531.19159099 620.31803586 528.39024761 617.5125138 C525.34170222 614.46052804 522.29024848 611.41145245 519.23916286 608.36200655 C513.89265392 603.01757007 508.54800417 597.67127998 503.20456696 592.32377243 C495.25906455 584.37223441 487.31069615 576.42356588 479.3617366 568.47548407 C465.99033449 555.10539587 452.62126131 541.7329812 439.25351143 528.35924149 C426.01673914 515.11655325 412.77893429 501.87489861 399.53974724 488.63462448 C398.71673843 487.81154693 397.89372962 486.98846938 397.04578115 486.14045009 C392.86617187 481.96050248 388.68654411 477.78057334 384.50690924 473.60065131 C354.89852044 443.9901618 325.29245106 414.37735423 295.68774414 384.76318359 C266.92622268 355.99247856 238.16365164 327.22282348 209.3996582 298.45458984 C208.51310967 297.56790979 207.62656115 296.68122973 206.71314751 295.76768059 C197.81010474 286.86331931 188.90704062 277.95897937 180.00396086 269.05465508 C161.86717647 250.91533444 143.73053459 232.77587131 125.59397888 214.63632202 C124.3431298 213.385267 124.3431298 213.385267 123.06701103 212.10893814 C67.37561997 156.40834559 11.68755118 100.7044315 -44 45 C-43.04583633 43.88028581 -42.09074291 42.76136387 -41.13525963 41.64277554 C-40.6034922 41.01959074 -40.07172477 40.39640595 -39.52384317 39.75433677 C-37.70332854 37.65845459 -35.79672202 35.67659879 -33.83056641 33.71704102 C-33.07023102 32.95678116 -32.30989563 32.1965213 -31.52651978 31.41322327 C-30.72628387 30.61814865 -29.92604797 29.82307404 -29.1015625 29.00390625 C-28.26660248 28.17036118 -27.43164246 27.3368161 -26.57138062 26.47801208 C-23.92494152 23.83713476 -21.27503241 21.19977104 -18.625 18.5625 C-16.82138357 16.76390351 -15.01799575 14.96507773 -13.21484375 13.16601562 C-8.81253739 8.77468752 -4.40738286 4.38623271 0 0 Z " fill="#01E8D3" transform="translate(330,249)"/>
<path d="M0 0 C6.05147916 5.01211614 11.5933221 10.45418725 17.13805294 16.01500511 C18.15902326 17.0352349 19.18021303 18.05524512 20.20160106 19.07505673 C23.00656497 21.87695961 25.80840901 24.68196414 28.60975239 27.4874862 C31.65829778 30.53947196 34.70975152 33.58854755 37.76083714 36.63799345 C43.10734608 41.98242993 48.45199583 47.32872002 53.79543304 52.67622757 C61.74093545 60.62776559 69.68930385 68.57643412 77.6382634 76.52451593 C91.00966551 89.89460413 104.37873869 103.2670188 117.74648857 116.64075851 C130.98326086 129.88344675 144.22106571 143.12510139 157.46025276 156.36537552 C158.28326157 157.18845307 159.10627038 158.01153062 159.95421885 158.85954991 C164.13382813 163.03949752 168.31345589 167.21942666 172.49309076 171.39934869 C202.10147956 201.0098382 231.70754894 230.62264577 261.31225586 260.23681641 C290.07377732 289.00752144 318.83634836 317.77717652 347.6003418 346.54541016 C348.48689033 347.43209021 349.37343885 348.31877027 350.28685249 349.23231941 C359.18989526 358.13668069 368.09295938 367.04102063 376.99603914 375.94534492 C395.13282353 394.08466556 413.26946541 412.22412869 431.40602112 430.36367798 C432.23992051 431.19771466 433.0738199 432.03175134 433.93298897 432.89106186 C489.62438003 488.59165441 545.31244882 544.2955685 601 600 C600.06715087 601.09960012 599.13264824 602.19779758 598.19747925 603.29542542 C597.67726133 603.90713876 597.15704342 604.5188521 596.62106133 605.14910221 C594.04418661 608.09133002 591.2850861 610.8381843 588.5078125 613.58984375 C587.91700897 614.17923233 587.32620544 614.76862091 586.71749878 615.37586975 C584.85569596 617.23213727 582.99042255 619.08487085 581.125 620.9375 C579.85132989 622.20614672 578.57789029 623.4750249 577.3046875 624.74414062 C574.20577957 627.83210554 571.10375699 630.91690929 568 634 C564.55377438 632.51522469 562.31908357 630.56858863 559.67522454 627.92362154 C558.8104853 627.06337688 557.94574606 626.20313222 557.0548026 625.31681955 C556.09785986 624.35474527 555.14100851 623.39258008 554.18423843 622.43033409 C553.16186159 621.40943615 552.13904606 620.38897739 551.11583096 619.36891961 C548.29011296 616.54935827 545.47070124 613.72356231 542.65222857 610.89676095 C539.59066293 607.82834326 536.52331394 604.7657164 533.45667911 601.70236647 C528.07784466 596.32768592 522.70275066 590.94928702 517.33005714 585.56846809 C509.34098859 577.56735076 501.34621505 569.57195241 493.35024146 561.57773639 C479.90120905 548.13133456 466.45684491 534.68027426 453.01511383 521.22657394 C439.70164803 507.90128346 426.38612458 494.5780547 413.06783295 481.25758743 C412.24045888 480.43007588 411.41308481 479.60256434 410.5606388 478.74997668 C406.35899719 474.54765842 402.15731864 470.3453771 397.95562586 466.14310999 C368.17719142 436.36047214 338.40339891 406.57319771 308.63232422 376.78320312 C279.70595842 347.83847546 250.77749775 318.89584413 221.84619141 289.95605469 C220.95476613 289.06436636 220.06334086 288.17267803 219.14490269 287.25396885 C210.1930303 278.29945946 201.24111522 269.34499275 192.28916887 260.3905573 C174.05221206 242.14852775 155.81554018 223.90621337 137.57904053 205.66372681 C136.32124894 204.40552335 136.32124894 204.40552335 135.03804741 203.12190163 C79.02059239 147.08603809 23.0097802 91.04353467 -33 35 C-31.59372922 32.07396629 -30.23827317 29.99243355 -27.92724609 27.70019531 C-27.30675385 27.07985413 -26.6862616 26.45951294 -26.04696655 25.82037354 C-25.37920197 25.16293152 -24.71143738 24.5054895 -24.0234375 23.828125 C-23.33819 23.1457074 -22.6529425 22.46328979 -21.94692993 21.76019287 C-19.76094155 19.58538402 -17.56809571 17.41763928 -15.375 15.25 C-13.89016745 13.7752001 -12.40578694 12.29994494 -10.921875 10.82421875 C-7.2864709 7.21084552 -3.64490176 3.60379147 0 0 Z " fill="#03E8D3" transform="translate(274,305)"/>
<path d="M0 0 C3.44622562 1.48477531 5.68091643 3.43141137 8.32477546 6.07637846 C9.1895147 6.93662312 10.05425394 7.79686778 10.9451974 8.68318045 C11.90214014 9.64525473 12.85899149 10.60741992 13.81576157 11.56966591 C14.83813841 12.59056385 15.86095394 13.61102261 16.88416904 14.63108039 C19.70988704 17.45064173 22.52929876 20.27643769 25.34777143 23.10323905 C28.40933707 26.17165674 31.47668606 29.2342836 34.54332089 32.29763353 C39.92215534 37.67231408 45.29724934 43.05071298 50.66994286 48.43153191 C58.65901141 56.43264924 66.65378495 64.42804759 74.64975854 72.42226361 C88.09879095 85.86866544 101.54315509 99.31972574 114.98488617 112.77342606 C128.29835197 126.09871654 141.61387542 139.4219453 154.93216705 152.74241257 C155.75954112 153.56992412 156.58691519 154.39743566 157.4393612 155.25002332 C161.64100281 159.45234158 165.84268136 163.6546229 170.04437414 167.85689001 C199.82280858 197.63952786 229.59660109 227.42680229 259.36767578 257.21679688 C288.29404158 286.16152454 317.22250225 315.10415587 346.15380859 344.04394531 C347.04523387 344.93563364 347.93665914 345.82732197 348.85509731 346.74603115 C357.8069697 355.70054054 366.75888478 364.65500725 375.71083113 373.6094427 C393.94778794 391.85147225 412.18445982 410.09378663 430.42095947 428.33627319 C431.67875106 429.59447665 431.67875106 429.59447665 432.96195259 430.87809837 C488.97940761 486.91396191 544.9902198 542.95646533 601 599 C599.61392869 601.88011503 598.29430637 603.95186427 596.01904297 606.20800781 C595.41857147 606.80832825 594.81809998 607.40864868 594.19943237 608.02716064 C593.55354156 608.66272888 592.90765076 609.29829712 592.2421875 609.953125 C591.57913605 610.61334656 590.91608459 611.27356812 590.23294067 611.95379639 C588.11828168 614.05727824 585.99676788 616.15369142 583.875 618.25 C582.43834443 619.67662261 581.00214102 621.10370072 579.56640625 622.53125 C576.04949196 626.02613661 572.52641453 629.51470062 569 633 C565.83415342 631.59885905 563.69966242 629.94926669 561.25806051 627.50645751 C560.52360995 626.77650153 559.78915938 626.04654554 559.03245273 625.29446968 C558.23098689 624.48774981 557.42952104 623.68102994 556.60376835 622.84986401 C555.7446455 621.99304884 554.88552264 621.13623368 554.00036576 620.25345442 C551.60584489 617.8633306 549.2159123 615.46877769 546.82776402 613.0722964 C544.23261534 610.47029122 541.63167907 607.8740824 539.03145927 605.27714664 C534.47139079 600.72123076 529.91506235 596.1616009 525.36113548 591.59954643 C518.58929193 584.81565045 511.81174081 578.03747853 505.03299025 571.26048518 C493.62986109 559.85998638 482.23140061 548.45483048 470.8355732 537.04703331 C459.54564697 525.74527906 448.25366045 514.44558993 436.95890617 503.14866066 C436.25702894 502.44664595 435.5551517 501.74463123 434.83200546 501.02134334 C431.2675218 497.45618302 427.70300119 493.89105964 424.13846635 490.32595048 C398.87468707 465.05796775 373.61554973 439.78534937 348.35913086 414.51000977 C323.8321747 389.96470064 299.30313088 365.4214809 274.77124023 340.88110352 C274.01569531 340.12529554 273.26015038 339.36948756 272.48171016 338.59077631 C264.89378644 331.00021541 257.30581999 323.40969725 249.71782208 315.81921052 C234.24660787 300.34292012 218.77567644 284.86634705 203.30491638 269.38960266 C202.59320371 268.67761541 201.88149103 267.96562815 201.1482113 267.23206552 C158.53942566 224.60678336 115.93600203 181.97614212 73.33387518 139.34420488 C71.93254563 137.94189502 70.53121273 136.53958852 69.12987974 135.1372821 C67.45340639 133.45964147 65.77694017 131.78199372 64.10048285 130.10433707 C60.40096549 126.4022472 56.70111317 122.70049449 53 119 C24.66666667 90.66666667 -3.66666667 62.33333333 -32 34 C-30.61392869 31.11988497 -29.29430637 29.04813573 -27.01904297 26.79199219 C-26.41857147 26.19167175 -25.81809998 25.59135132 -25.19943237 24.97283936 C-24.55354156 24.33727112 -23.90765076 23.70170288 -23.2421875 23.046875 C-22.57913605 22.38665344 -21.91608459 21.72643188 -21.23294067 21.04620361 C-19.11828168 18.94272176 -16.99676788 16.84630858 -14.875 14.75 C-13.43834443 13.32337739 -12.00214102 11.89629928 -10.56640625 10.46875 C-7.04949196 6.97386339 -3.52641453 3.48529938 0 0 Z " fill="#01E8D3" transform="translate(228,351)"/>
<path d="M0 0 C3.44622562 1.48477531 5.68091643 3.43141137 8.32477546 6.07637846 C9.62188432 7.36674545 9.62188432 7.36674545 10.9451974 8.68318045 C11.90214014 9.64525473 12.85899149 10.60741992 13.81576157 11.56966591 C14.83813841 12.59056385 15.86095394 13.61102261 16.88416904 14.63108039 C19.70988704 17.45064173 22.52929876 20.27643769 25.34777143 23.10323905 C28.40933707 26.17165674 31.47668606 29.2342836 34.54332089 32.29763353 C39.92215534 37.67231408 45.29724934 43.05071298 50.66994286 48.43153191 C58.65901141 56.43264924 66.65378495 64.42804759 74.64975854 72.42226361 C88.09879095 85.86866544 101.54315509 99.31972574 114.98488617 112.77342606 C128.29835197 126.09871654 141.61387542 139.4219453 154.93216705 152.74241257 C155.75954112 153.56992412 156.58691519 154.39743566 157.4393612 155.25002332 C161.64100281 159.45234158 165.84268136 163.6546229 170.04437414 167.85689001 C199.82280858 197.63952786 229.59660109 227.42680229 259.36767578 257.21679688 C288.29404158 286.16152454 317.22250225 315.10415587 346.15380859 344.04394531 C347.04523387 344.93563364 347.93665914 345.82732197 348.85509731 346.74603115 C357.8069697 355.70054054 366.75888478 364.65500725 375.71083113 373.6094427 C393.94778794 391.85147225 412.18445982 410.09378663 430.42095947 428.33627319 C431.67875106 429.59447665 431.67875106 429.59447665 432.96195259 430.87809837 C488.97940761 486.91396191 544.9902198 542.95646533 601 599 C599.3413812 602.52344644 597.43342692 604.79901878 594.6484375 607.546875 C593.79765625 608.39121094 592.946875 609.23554687 592.0703125 610.10546875 C591.18085937 610.97816406 590.29140625 611.85085938 589.375 612.75 C588.4778125 613.63816406 587.580625 614.52632812 586.65625 615.44140625 C584.44192996 617.63216969 582.22307565 619.81812763 580 622 C576.55377438 620.51522469 574.31908357 618.56858863 571.67522454 615.92362154 C570.8104853 615.06337688 569.94574606 614.20313222 569.0548026 613.31681955 C568.09785986 612.35474527 567.14100851 611.39258008 566.18423843 610.43033409 C565.16186159 609.40943615 564.13904606 608.38897739 563.11583096 607.36891961 C560.29011296 604.54935827 557.47070124 601.72356231 554.65222857 598.89676095 C551.59066293 595.82834326 548.52331394 592.7657164 545.45667911 589.70236647 C540.07784466 584.32768592 534.70275066 578.94928702 529.33005714 573.56846809 C521.34098859 565.56735076 513.34621505 557.57195241 505.35024146 549.57773639 C491.90120905 536.13133456 478.45684491 522.68027426 465.01511383 509.22657394 C451.70164803 495.90128346 438.38612458 482.5780547 425.06783295 469.25758743 C424.24045888 468.43007588 423.41308481 467.60256434 422.5606388 466.74997668 C418.35899719 462.54765842 414.15731864 458.3453771 409.95562586 454.14310999 C380.17719142 424.36047214 350.40339891 394.57319771 320.63232422 364.78320312 C291.70595842 335.83847546 262.77749775 306.89584413 233.84619141 277.95605469 C232.95476613 277.06436636 232.06334086 276.17267803 231.14490269 275.25396885 C222.1930303 266.29945946 213.24111522 257.34499275 204.28916887 248.3905573 C186.05221206 230.14852775 167.81554018 211.90621337 149.57904053 193.66372681 C148.32124894 192.40552335 148.32124894 192.40552335 147.03804741 191.12190163 C91.02059239 135.08603809 35.0097802 79.04353467 -21 23 C-19.3413812 19.47655356 -17.43342692 17.20098122 -14.6484375 14.453125 C-13.79765625 13.60878906 -12.946875 12.76445312 -12.0703125 11.89453125 C-11.18085937 11.02183594 -10.29140625 10.14914062 -9.375 9.25 C-8.4778125 8.36183594 -7.580625 7.47367187 -6.65625 6.55859375 C-4.44192996 4.36783031 -2.22307565 2.18187237 0 0 Z " fill="#04E8D3" transform="translate(115,464)"/>
<path d="M0 0 C3.44622562 1.48477531 5.68091643 3.43141137 8.32477546 6.07637846 C9.62188432 7.36674545 9.62188432 7.36674545 10.9451974 8.68318045 C11.90214014 9.64525473 12.85899149 10.60741992 13.81576157 11.56966591 C14.83813841 12.59056385 15.86095394 13.61102261 16.88416904 14.63108039 C19.70988704 17.45064173 22.52929876 20.27643769 25.34777143 23.10323905 C28.40933707 26.17165674 31.47668606 29.2342836 34.54332089 32.29763353 C39.92215534 37.67231408 45.29724934 43.05071298 50.66994286 48.43153191 C58.65901141 56.43264924 66.65378495 64.42804759 74.64975854 72.42226361 C88.09879095 85.86866544 101.54315509 99.31972574 114.98488617 112.77342606 C128.29835197 126.09871654 141.61387542 139.4219453 154.93216705 152.74241257 C155.75954112 153.56992412 156.58691519 154.39743566 157.4393612 155.25002332 C161.64100281 159.45234158 165.84268136 163.6546229 170.04437414 167.85689001 C199.82280858 197.63952786 229.59660109 227.42680229 259.36767578 257.21679688 C288.29404158 286.16152454 317.22250225 315.10415587 346.15380859 344.04394531 C347.04523387 344.93563364 347.93665914 345.82732197 348.85509731 346.74603115 C357.8069697 355.70054054 366.75888478 364.65500725 375.71083113 373.6094427 C393.94778794 391.85147225 412.18445982 410.09378663 430.42095947 428.33627319 C431.67875106 429.59447665 431.67875106 429.59447665 432.96195259 430.87809837 C488.97940761 486.91396191 544.9902198 542.95646533 601 599 C599.3413812 602.52344644 597.43342692 604.79901878 594.6484375 607.546875 C593.79765625 608.39121094 592.946875 609.23554687 592.0703125 610.10546875 C591.18085937 610.97816406 590.29140625 611.85085938 589.375 612.75 C588.4778125 613.63816406 587.580625 614.52632812 586.65625 615.44140625 C584.44192996 617.63216969 582.22307565 619.81812763 580 622 C576.55377438 620.51522469 574.31908357 618.56858863 571.67522454 615.92362154 C570.8104853 615.06337688 569.94574606 614.20313222 569.0548026 613.31681955 C568.09785986 612.35474527 567.14100851 611.39258008 566.18423843 610.43033409 C565.16186159 609.40943615 564.13904606 608.38897739 563.11583096 607.36891961 C560.29011296 604.54935827 557.47070124 601.72356231 554.65222857 598.89676095 C551.59066293 595.82834326 548.52331394 592.7657164 545.45667911 589.70236647 C540.07784466 584.32768592 534.70275066 578.94928702 529.33005714 573.56846809 C521.34098859 565.56735076 513.34621505 557.57195241 505.35024146 549.57773639 C491.90120905 536.13133456 478.45684491 522.68027426 465.01511383 509.22657394 C451.70164803 495.90128346 438.38612458 482.5780547 425.06783295 469.25758743 C424.24045888 468.43007588 423.41308481 467.60256434 422.5606388 466.74997668 C418.35899719 462.54765842 414.15731864 458.3453771 409.95562586 454.14310999 C380.17719142 424.36047214 350.40339891 394.57319771 320.63232422 364.78320312 C291.70595842 335.83847546 262.77749775 306.89584413 233.84619141 277.95605469 C232.95476613 277.06436636 232.06334086 276.17267803 231.14490269 275.25396885 C222.1930303 266.29945946 213.24111522 257.34499275 204.28916887 248.3905573 C186.05221206 230.14852775 167.81554018 211.90621337 149.57904053 193.66372681 C148.32124894 192.40552335 148.32124894 192.40552335 147.03804741 191.12190163 C91.02059239 135.08603809 35.0097802 79.04353467 -21 23 C-19.3413812 19.47655356 -17.43342692 17.20098122 -14.6484375 14.453125 C-13.79765625 13.60878906 -12.946875 12.76445312 -12.0703125 11.89453125 C-11.18085938 11.02183594 -10.29140625 10.14914062 -9.375 9.25 C-8.4778125 8.36183594 -7.580625 7.47367187 -6.65625 6.55859375 C-4.44192996 4.36783031 -2.22307565 2.18187237 0 0 Z " fill="#04E8D3" transform="translate(149,430)"/>
<path d="M0 0 C5.33843716 4.45443056 10.29064495 9.16355521 15.18261719 14.10083008 C16.36198097 15.2847937 16.36198097 15.2847937 17.56517029 16.49267578 C19.26096724 18.1955918 20.95563627 19.89963163 22.64928436 21.60468483 C25.32792159 24.30078018 28.0101471 26.99325727 30.69342041 29.68473816 C38.31795429 37.33367677 45.93678405 44.98827584 53.55126953 52.6472168 C58.21681033 57.33990917 62.88759542 62.02734331 67.56119537 66.71201134 C69.34133673 68.49837264 71.11957685 70.2866306 72.89589691 72.07679176 C75.37108293 74.57110741 77.85228785 77.05928226 80.33496094 79.54614258 C81.43840096 80.66272499 81.43840096 80.66272499 82.56413269 81.80186462 C83.57746422 82.8132399 83.57746422 82.8132399 84.61126709 83.845047 C85.19673183 84.43365415 85.78219658 85.0222613 86.38540268 85.62870502 C88.06677453 87.22953349 88.06677453 87.22953349 91 88 C92.03558852 89.64479002 93.03196903 91.31456421 94 93 C95.1621912 94.33187663 96.37326915 95.62228308 97.62349433 96.87189132 C98.35697873 97.60987031 99.09046313 98.34784929 99.84617433 99.10819128 C100.65169643 99.90845935 101.45721852 100.70872742 102.28715038 101.53324604 C103.14661737 102.39502072 104.00608437 103.2567954 104.89159581 104.14468446 C107.28446396 106.54194303 109.68174956 108.93462452 112.0809766 111.32550898 C114.68762203 113.92528851 117.28846087 116.53086598 119.89003307 119.13572043 C124.45238948 123.7022264 129.01845423 128.26499797 133.5869503 132.82536125 C140.38014108 139.60649239 147.16760027 146.39333865 153.95388514 153.18138007 C165.36911317 164.59923735 176.78899494 176.01242934 188.21152306 187.42298317 C199.52361521 198.72324715 210.83364213 210.02557154 222.14090919 221.33066368 C222.84358079 222.0331978 223.54625239 222.73573192 224.27021707 223.45955495 C227.83862233 227.02728356 231.40699065 230.59504911 234.97534475 234.16282889 C260.25959446 259.44287614 285.54847941 284.71828186 310.84008789 309.9909668 C335.41274649 334.54526098 359.98330673 359.10165181 384.55102539 383.66088867 C385.30811716 384.41771739 386.06520893 385.1745461 386.84524287 385.95430902 C394.44816665 393.5545958 402.05104775 401.15492526 409.65389758 408.75528601 C425.14221209 424.2385279 440.63081149 439.7214848 456.11958313 455.20426941 C456.83175414 455.91616584 457.54392516 456.62806228 458.27767711 457.36153133 C505.84701327 504.91246165 553.42299022 552.45674767 601 600 C600.04359074 601.12203297 599.08629732 602.24331233 598.12863159 603.36427307 C597.59563383 603.98876626 597.06263607 604.61325945 596.51348686 605.25667667 C594.79249612 607.23901519 592.99709481 609.1169148 591.1328125 610.96484375 C590.47539063 611.61904297 589.81796875 612.27324219 589.140625 612.94726562 C588.47546875 613.60404297 587.8103125 614.26082031 587.125 614.9375 C586.43664062 615.62134766 585.74828125 616.30519531 585.0390625 617.00976562 C583.36166489 618.67551464 581.68196209 620.3388622 580 622 C576.55377438 620.51522469 574.31908357 618.56858863 571.67522454 615.92362154 C570.8104853 615.06337688 569.94574606 614.20313222 569.0548026 613.31681955 C568.09785986 612.35474527 567.14100851 611.39258008 566.18423843 610.43033409 C565.16186159 609.40943615 564.13904606 608.38897739 563.11583096 607.36891961 C560.29011296 604.54935827 557.47070124 601.72356231 554.65222857 598.89676095 C551.59066293 595.82834326 548.52331394 592.7657164 545.45667911 589.70236647 C540.07784466 584.32768592 534.70275066 578.94928702 529.33005714 573.56846809 C521.34098859 565.56735076 513.34621505 557.57195241 505.35024146 549.57773639 C491.90120905 536.13133456 478.45684491 522.68027426 465.01511383 509.22657394 C451.70164803 495.90128346 438.38612458 482.5780547 425.06783295 469.25758743 C424.24045888 468.43007588 423.41308481 467.60256434 422.5606388 466.74997668 C418.35899719 462.54765842 414.15731864 458.3453771 409.95562586 454.14310999 C380.17719142 424.36047214 350.40339891 394.57319771 320.63232422 364.78320312 C291.70595842 335.83847546 262.77749775 306.89584413 233.84619141 277.95605469 C232.95476613 277.06436636 232.06334086 276.17267803 231.14490269 275.25396885 C222.1930303 266.29945946 213.24111522 257.34499275 204.28916887 248.3905573 C186.05221206 230.14852775 167.81554018 211.90621337 149.57904053 193.66372681 C148.32124894 192.40552335 148.32124894 192.40552335 147.03804741 191.12190163 C91.02059239 135.08603809 35.0097802 79.04353467 -21 23 C-19.3413812 19.47655356 -17.43342692 17.20098122 -14.6484375 14.453125 C-13.79765625 13.60878906 -12.946875 12.76445312 -12.0703125 11.89453125 C-11.18085938 11.02183594 -10.29140625 10.14914062 -9.375 9.25 C-8.4778125 8.36183594 -7.580625 7.47367187 -6.65625 6.55859375 C-4.44192996 4.36783031 -2.22307565 2.18187237 0 0 Z " fill="#01E8D3" transform="translate(183,396)"/>
<path d="M0 0 C3.44622562 1.48477531 5.68091643 3.43141137 8.32477546 6.07637846 C9.62188432 7.36674545 9.62188432 7.36674545 10.9451974 8.68318045 C11.90214014 9.64525473 12.85899149 10.60741992 13.81576157 11.56966591 C14.83813841 12.59056385 15.86095394 13.61102261 16.88416904 14.63108039 C19.70988704 17.45064173 22.52929876 20.27643769 25.34777143 23.10323905 C28.40933707 26.17165674 31.47668606 29.2342836 34.54332089 32.29763353 C39.92215534 37.67231408 45.29724934 43.05071298 50.66994286 48.43153191 C58.65901141 56.43264924 66.65378495 64.42804759 74.64975854 72.42226361 C88.09879095 85.86866544 101.54315509 99.31972574 114.98488617 112.77342606 C128.29835197 126.09871654 141.61387542 139.4219453 154.93216705 152.74241257 C155.75954112 153.56992412 156.58691519 154.39743566 157.4393612 155.25002332 C161.64100281 159.45234158 165.84268136 163.6546229 170.04437414 167.85689001 C199.82280858 197.63952786 229.59660109 227.42680229 259.36767578 257.21679688 C288.29404158 286.16152454 317.22250225 315.10415587 346.15380859 344.04394531 C347.04523387 344.93563364 347.93665914 345.82732197 348.85509731 346.74603115 C357.8069697 355.70054054 366.75888478 364.65500725 375.71083113 373.6094427 C393.94778794 391.85147225 412.18445982 410.09378663 430.42095947 428.33627319 C431.67875106 429.59447665 431.67875106 429.59447665 432.96195259 430.87809837 C488.97940761 486.91396191 544.9902198 542.95646533 601 599 C599.39464713 602.41059403 597.59481099 604.61792484 594.875 607.25 C594.15054688 607.95640625 593.42609375 608.6628125 592.6796875 609.390625 C592.12539063 609.92171875 591.57109375 610.4528125 591 611 C587.55377438 609.51522469 585.31908357 607.56858863 582.67522454 604.92362154 C581.8104853 604.06337688 580.94574606 603.20313222 580.0548026 602.31681955 C579.09785986 601.35474527 578.14100851 600.39258008 577.18423843 599.43033409 C576.16186159 598.40943615 575.13904606 597.38897739 574.11583096 596.36891961 C571.29011296 593.54935827 568.47070124 590.72356231 565.65222857 587.89676095 C562.59066293 584.82834326 559.52331394 581.7657164 556.45667911 578.70236647 C551.07784466 573.32768592 545.70275066 567.94928702 540.33005714 562.56846809 C532.34098859 554.56735076 524.34621505 546.57195241 516.35024146 538.57773639 C502.90120905 525.13133456 489.45684491 511.68027426 476.01511383 498.22657394 C462.70164803 484.90128346 449.38612458 471.5780547 436.06783295 458.25758743 C435.24045888 457.43007588 434.41308481 456.60256434 433.5606388 455.74997668 C429.35899719 451.54765842 425.15731864 447.3453771 420.95562586 443.14310999 C391.17719142 413.36047214 361.40339891 383.57319771 331.63232422 353.78320312 C302.70595842 324.83847546 273.77749775 295.89584413 244.84619141 266.95605469 C243.95476613 266.06436636 243.06334086 265.17267803 242.14490269 264.25396885 C233.1930303 255.29945946 224.24111522 246.34499275 215.28916887 237.3905573 C197.05221206 219.14852775 178.81554018 200.90621337 160.57904053 182.66372681 C159.32124894 181.40552335 159.32124894 181.40552335 158.03804741 180.12190163 C102.02059239 124.08603809 46.0097802 68.04353467 -10 12 C-8.39464713 8.58940597 -6.59481099 6.38207516 -3.875 3.75 C-3.15054687 3.04359375 -2.42609375 2.3371875 -1.6796875 1.609375 C-1.12539062 1.07828125 -0.57109375 0.5471875 0 0 Z " fill="#01E8D3" transform="translate(13,566)"/>
<path d="M0 0 C5.97652319 4.95434516 11.44994951 10.31221773 16.928298 15.80804348 C17.92638161 16.80569031 18.9246853 17.80311699 19.92318776 18.80034462 C22.66466479 21.5395899 25.403018 24.28193938 28.14087101 27.02480618 C31.12070357 30.00898254 34.10345542 32.99023861 37.08584028 35.97186381 C42.31195345 41.19744418 47.53621208 46.42487288 52.75926208 51.65351486 C60.52615512 59.42869996 68.29592805 67.20100237 76.06631671 74.97269381 C89.13932597 88.04803794 102.21007575 101.12563849 115.2796154 114.20445061 C133.12758721 132.06502429 150.97883777 149.9223182 168.83096737 167.77873594 C177.14709681 176.09687172 185.46306566 184.41516803 193.77899265 192.7335062 C194.61149002 193.56624458 195.44398738 194.39898295 196.30171193 195.25695583 C216.11756039 215.07861577 235.93183589 234.90184785 255.74584961 254.7253418 C257.04630787 256.02642052 257.04630787 256.02642052 258.37303801 257.35378366 C272.44210166 271.42956418 286.51106994 285.50544001 300.58002603 299.58132803 C313.76123178 312.76902637 326.94247228 325.95668999 340.1237793 339.14428711 C340.99013465 340.01105705 341.85649 340.87782699 342.74909854 341.77086269 C362.52670032 361.5579119 382.30475139 381.34451175 402.08421421 401.12970066 C403.33100073 402.37684867 403.33100073 402.37684867 404.60297485 403.64919158 C412.90080314 411.94940517 421.19871011 420.24954008 429.49673457 428.54955755 C447.32908844 446.38622921 465.16006 464.22427962 482.9882462 482.06511702 C495.98356029 495.06961104 508.98058429 508.07239394 521.97939985 521.07338803 C529.70451779 528.7999218 537.42821069 536.52787389 545.14989992 544.25783425 C550.3064339 549.41962086 555.46477548 554.57959632 560.624593 559.73810064 C563.56532726 562.67819333 566.50525869 565.61907672 569.4429779 568.5621823 C572.11731315 571.24139227 574.79395917 573.91827115 577.47243892 576.59333757 C578.88516389 578.00544495 580.29543496 579.42000601 581.70559421 580.83467558 C586.12869512 585.24742095 590.60706101 589.52210807 595.3593252 593.57995102 C597.3386032 595.29307035 599.18756956 597.11205163 601 599 C599.52278578 602.45201639 597.56205999 604.64961936 594.875 607.25 C594.15054688 607.95640625 593.42609375 608.6628125 592.6796875 609.390625 C592.12539063 609.92171875 591.57109375 610.4528125 591 611 C587.55377438 609.51522469 585.31908357 607.56858863 582.67522454 604.92362154 C581.8104853 604.06337688 580.94574606 603.20313222 580.0548026 602.31681955 C579.09785986 601.35474527 578.14100851 600.39258008 577.18423843 599.43033409 C576.16186159 598.40943615 575.13904606 597.38897739 574.11583096 596.36891961 C571.29011296 593.54935827 568.47070124 590.72356231 565.65222857 587.89676095 C562.59066293 584.82834326 559.52331394 581.7657164 556.45667911 578.70236647 C551.07784466 573.32768592 545.70275066 567.94928702 540.33005714 562.56846809 C532.34098859 554.56735076 524.34621505 546.57195241 516.35024146 538.57773639 C502.90120905 525.13133456 489.45684491 511.68027426 476.01511383 498.22657394 C462.70164803 484.90128346 449.38612458 471.5780547 436.06783295 458.25758743 C435.24045888 457.43007588 434.41308481 456.60256434 433.5606388 455.74997668 C429.35899719 451.54765842 425.15731864 447.3453771 420.95562586 443.14310999 C391.17719142 413.36047214 361.40339891 383.57319771 331.63232422 353.78320312 C302.70595842 324.83847546 273.77749775 295.89584413 244.84619141 266.95605469 C243.95476613 266.06436636 243.06334086 265.17267803 242.14490269 264.25396885 C233.1930303 255.29945946 224.24111522 246.34499275 215.28916887 237.3905573 C197.05221206 219.14852775 178.81554018 200.90621337 160.57904053 182.66372681 C159.32124894 181.40552335 159.32124894 181.40552335 158.03804741 180.12190163 C102.02059239 124.08603809 46.0097802 68.04353467 -10 12 C-8.39464713 8.58940597 -6.59481099 6.38207516 -3.875 3.75 C-3.15054688 3.04359375 -2.42609375 2.3371875 -1.6796875 1.609375 C-1.12539063 1.07828125 -0.57109375 0.5471875 0 0 Z " fill="#05E8D3" transform="translate(59,520)"/>
<path d="M0 0 C3.44622562 1.48477531 5.68091643 3.43141137 8.32477546 6.07637846 C9.62188432 7.36674545 9.62188432 7.36674545 10.9451974 8.68318045 C11.90214014 9.64525473 12.85899149 10.60741992 13.81576157 11.56966591 C14.83813841 12.59056385 15.86095394 13.61102261 16.88416904 14.63108039 C19.70988704 17.45064173 22.52929876 20.27643769 25.34777143 23.10323905 C28.40933707 26.17165674 31.47668606 29.2342836 34.54332089 32.29763353 C39.92215534 37.67231408 45.29724934 43.05071298 50.66994286 48.43153191 C58.65901141 56.43264924 66.65378495 64.42804759 74.64975854 72.42226361 C88.09879095 85.86866544 101.54315509 99.31972574 114.98488617 112.77342606 C128.29835197 126.09871654 141.61387542 139.4219453 154.93216705 152.74241257 C155.75954112 153.56992412 156.58691519 154.39743566 157.4393612 155.25002332 C161.64100281 159.45234158 165.84268136 163.6546229 170.04437414 167.85689001 C199.82280858 197.63952786 229.59660109 227.42680229 259.36767578 257.21679688 C288.29404158 286.16152454 317.22250225 315.10415587 346.15380859 344.04394531 C347.04523387 344.93563364 347.93665914 345.82732197 348.85509731 346.74603115 C357.8069697 355.70054054 366.75888478 364.65500725 375.71083113 373.6094427 C393.94778794 391.85147225 412.18445982 410.09378663 430.42095947 428.33627319 C431.67875106 429.59447665 431.67875106 429.59447665 432.96195259 430.87809837 C488.97940761 486.91396191 544.9902198 542.95646533 601 599 C599.39464713 602.41059403 597.59481099 604.61792484 594.875 607.25 C594.15054688 607.95640625 593.42609375 608.6628125 592.6796875 609.390625 C592.12539063 609.92171875 591.57109375 610.4528125 591 611 C587.7760483 609.58460657 585.64333208 607.88585072 583.1875 605.375 C582.56230469 604.74335937 581.93710937 604.11171875 581.29296875 603.4609375 C579.46584049 601.49996509 577.72039028 599.51072422 575.97860473 597.47579718 C571.55010812 592.40955511 566.81259648 587.67587821 562.04935551 582.92630768 C561.04842553 581.92463681 560.04771513 580.92274649 559.0472028 579.92065847 C556.30354527 577.17394556 553.55679433 574.43034471 550.8095181 571.6872519 C547.81893372 568.70011263 544.83126469 565.71005982 541.84322208 562.7203784 C536.60814616 557.48323148 531.37121941 552.24794109 526.1330719 547.01386642 C518.34416642 539.23100026 510.55813434 531.44526426 502.77268673 523.65893926 C489.67573774 510.56067682 476.57646363 497.46474202 463.4758625 484.37013245 C450.50473561 471.40492269 437.5346434 458.43867931 424.56593132 445.47105408 C423.75955867 444.66475017 422.95318602 443.85844626 422.12237784 443.0277089 C418.02721972 438.93288912 413.93208008 434.83805086 409.83694755 430.74320549 C380.83153068 401.73988899 351.82379604 372.73889163 322.81469727 343.73925781 C294.63285899 315.56660397 266.45207132 287.39289991 238.27270508 259.21777344 C237.40408522 258.34928511 236.53546536 257.48079677 235.64052369 256.58599062 C226.91748283 247.86426827 218.19446331 239.14252457 209.47145944 230.42076522 C191.70171335 212.65355534 173.93182475 194.886488 156.16184998 177.11950684 C155.34481645 176.3026106 154.52778293 175.48571437 153.68599081 174.6440637 C99.12638115 120.09365462 44.56344957 65.54656823 -10 11 C-9.05052441 9.88322508 -8.09975103 8.76755346 -7.1484375 7.65234375 C-6.35445557 6.72023071 -6.35445557 6.72023071 -5.54443359 5.76928711 C-3.78334607 3.7518035 -1.93011408 1.85587892 0 0 Z " fill="#05E8D3" transform="translate(81,498)"/>
<path d="M0 0 C6.05147916 5.01211614 11.5933221 10.45418725 17.13805294 16.01500511 C18.15902326 17.0352349 19.18021303 18.05524512 20.20160106 19.07505673 C23.00656497 21.87695961 25.80840901 24.68196414 28.60975239 27.4874862 C31.65829778 30.53947196 34.70975152 33.58854755 37.76083714 36.63799345 C43.10734608 41.98242993 48.45199583 47.32872002 53.79543304 52.67622757 C61.74093545 60.62776559 69.68930385 68.57643412 77.6382634 76.52451593 C91.00966551 89.89460413 104.37873869 103.2670188 117.74648857 116.64075851 C130.98326086 129.88344675 144.22106571 143.12510139 157.46025276 156.36537552 C158.28326157 157.18845307 159.10627038 158.01153062 159.95421885 158.85954991 C164.13382813 163.03949752 168.31345589 167.21942666 172.49309076 171.39934869 C202.10147956 201.0098382 231.70754894 230.62264577 261.31225586 260.23681641 C290.07377732 289.00752144 318.83634836 317.77717652 347.6003418 346.54541016 C348.48689033 347.43209021 349.37343885 348.31877027 350.28685249 349.23231941 C359.18989526 358.13668069 368.09295938 367.04102063 376.99603914 375.94534492 C395.13282353 394.08466556 413.26946541 412.22412869 431.40602112 430.36367798 C432.23992051 431.19771466 433.0738199 432.03175134 433.93298897 432.89106186 C489.62438003 488.59165441 545.31244882 544.2955685 601 600 C600.05052441 601.11677492 599.09975103 602.23244654 598.1484375 603.34765625 C597.35445557 604.27976929 597.35445557 604.27976929 596.54443359 605.23071289 C594.78334607 607.2481965 592.93011408 609.14412108 591 611 C587.55377438 609.51522469 585.31908357 607.56858863 582.67522454 604.92362154 C581.8104853 604.06337688 580.94574606 603.20313222 580.0548026 602.31681955 C579.09785986 601.35474527 578.14100851 600.39258008 577.18423843 599.43033409 C576.16186159 598.40943615 575.13904606 597.38897739 574.11583096 596.36891961 C571.29011296 593.54935827 568.47070124 590.72356231 565.65222857 587.89676095 C562.59066293 584.82834326 559.52331394 581.7657164 556.45667911 578.70236647 C551.07784466 573.32768592 545.70275066 567.94928702 540.33005714 562.56846809 C532.34098859 554.56735076 524.34621505 546.57195241 516.35024146 538.57773639 C502.90120905 525.13133456 489.45684491 511.68027426 476.01511383 498.22657394 C462.70164803 484.90128346 449.38612458 471.5780547 436.06783295 458.25758743 C435.24045888 457.43007588 434.41308481 456.60256434 433.5606388 455.74997668 C429.35899719 451.54765842 425.15731864 447.3453771 420.95562586 443.14310999 C391.17719142 413.36047214 361.40339891 383.57319771 331.63232422 353.78320312 C302.70595842 324.83847546 273.77749775 295.89584413 244.84619141 266.95605469 C243.95476613 266.06436636 243.06334086 265.17267803 242.14490269 264.25396885 C233.1930303 255.29945946 224.24111522 246.34499275 215.28916887 237.3905573 C197.05221206 219.14852775 178.81554018 200.90621337 160.57904053 182.66372681 C159.32124894 181.40552335 159.32124894 181.40552335 158.03804741 180.12190163 C102.02059239 124.08603809 46.0097802 68.04353467 -10 12 C-8.39464713 8.58940597 -6.59481099 6.38207516 -3.875 3.75 C-3.15054688 3.04359375 -2.42609375 2.3371875 -1.6796875 1.609375 C-1.12539063 1.07828125 -0.57109375 0.5471875 0 0 Z " fill="#05E8D3" transform="translate(36,543)"/>
</svg>
