<?xml version="1.0" encoding="UTF-8"?>
<svg version="1.1" xmlns="http://www.w3.org/2000/svg" width="1180" height="1184">
<path d="M0 0 C3.44622562 1.48477531 5.68091643 3.43141137 8.32477546 6.07637846 C9.1895147 6.93662312 10.05425394 7.79686778 10.9451974 8.68318045 C11.90214014 9.64525473 12.85899149 10.60741992 13.81576157 11.56966591 C14.83813841 12.59056385 15.86095394 13.61102261 16.88416904 14.63108039 C19.70988704 17.45064173 22.52929876 20.27643769 25.34777143 23.10323905 C28.40933707 26.17165674 31.47668606 29.2342836 34.54332089 32.29763353 C39.92215534 37.67231408 45.29724934 43.05071298 50.66994286 48.43153191 C58.65901141 56.43264924 66.65378495 64.42804759 74.64975854 72.42226361 C88.09879095 85.86866544 101.54315509 99.31972574 114.98488617 112.77342606 C128.29835197 126.09871654 141.61387542 139.4219453 154.93216705 152.74241257 C155.75954112 153.56992412 156.58691519 154.39743566 157.4393612 155.25002332 C161.64100281 159.45234158 165.84268136 163.6546229 170.04437414 167.85689001 C199.82280858 197.63952786 229.59660109 227.42680229 259.36767578 257.21679688 C288.29404158 286.16152454 317.22250225 315.10415587 346.15380859 344.04394531 C347.04523387 344.93563364 347.93665914 345.82732197 348.85509731 346.74603115 C357.8069697 355.70054054 366.75888478 364.65500725 375.71083113 373.6094427 C393.94778794 391.85147225 412.18445982 410.09378663 430.42095947 428.33627319 C431.2594872 429.1750755 432.09801493 430.01387781 432.96195259 430.87809837 C488.97940761 486.91396191 544.9902198 542.95646533 601 599 C599.06146677 603.22506739 596.16125596 606.12613805 592.90200806 609.37214661 C592.27017085 610.00922049 591.63833365 610.64629437 590.98734987 611.30267352 C588.86563552 613.43940842 586.73681338 615.56891561 584.60791016 617.69848633 C583.08663612 619.22738017 581.56576673 620.75667675 580.04527283 622.28634644 C575.91183337 626.44174866 571.77182245 630.59054253 567.62992907 634.73751664 C565.04486636 637.32621922 562.46110756 639.91621599 559.87778854 642.50665855 C550.8724907 651.53645199 541.86148552 660.56050931 532.84570312 669.57983398 C524.42913942 678.00003843 516.02581314 686.43329861 507.62837183 694.87256986 C500.42612238 702.10944094 493.21435274 709.33673136 485.99512136 716.55666178 C481.67982684 720.87275155 477.36865394 725.1927777 473.06715775 729.52262306 C469.02503874 733.59078494 464.97127863 737.64696504 460.9080677 741.69405746 C459.41535709 743.1849429 457.9269479 744.68014875 456.44309425 746.17984962 C454.42400414 748.21918982 452.39028754 750.24268759 450.35195923 752.26277161 C449.76187785 752.86605295 449.17179647 753.4693343 448.56383383 754.0908969 C446.90729713 755.71352863 446.90729713 755.71352863 444 758 C440.18131084 757.77948604 438.29035602 755.66641819 435.67407387 753.0524227 C434.80907841 752.19545024 433.94408294 751.33847778 433.05287549 750.45553645 C432.09559961 749.49200757 431.13846124 748.52834206 430.18144512 747.56455517 C429.15897632 746.54582062 428.13585183 745.52774381 427.11212978 744.51026866 C424.28330961 741.69486157 421.46397729 738.87011385 418.64602721 736.04383259 C415.58534985 732.97737464 412.51604407 729.91957433 409.4478119 726.86067897 C404.06576688 721.49258397 398.68937532 716.11887758 393.31659889 710.74150658 C385.32733026 702.74542348 377.32956715 694.75787767 369.33011689 686.77198214 C354.21506115 671.68187896 339.11025329 656.58154554 324.00861599 641.47801527 C312.35104736 629.81907543 300.69089288 618.16272758 289.02889442 606.50821877 C287.35552194 604.8358966 285.68215081 603.16357308 284.00878102 601.49124822 C283.17817589 600.66116244 282.34757077 599.83107666 281.49179579 598.97583676 C280.65970265 598.14426377 279.82760952 597.31269078 278.97030145 596.45591861 C278.13685296 595.62299411 277.30340447 594.79006961 276.44469996 593.93190498 C252.99296651 570.49476153 229.54439282 547.05446059 206.10225964 523.60771465 C204.77576654 522.28096363 204.77576654 522.28096363 203.4224756 520.92740955 C198.93998916 516.44403417 194.45753066 511.96063085 189.97508188 507.47721782 C189.08479506 506.58673996 188.19450825 505.69626211 187.27724304 504.77880008 C185.47686672 502.97803667 183.67649202 501.17727165 181.87611894 499.376505 C153.85090875 471.34532238 125.81500858 443.32487101 97.77075195 415.31274414 C66.28952551 383.86755425 34.81664108 352.41404851 3.3559044 320.94835788 C0.00463824 317.59662171 -3.3466578 314.24491542 -6.69797325 310.89322853 C-7.52319551 310.06790389 -8.34841777 309.24257924 -9.19864676 308.39224476 C-21.68227115 295.90742314 -34.17248039 283.42921455 -46.66602516 270.95432091 C-60.86530941 256.77622349 -75.05594631 242.58953801 -89.23491953 228.39112695 C-97.17900705 220.43667402 -105.13000939 212.48928029 -113.090917 204.55166034 C-118.39858374 199.25815143 -123.69721797 193.95571764 -128.98840007 188.64573149 C-132.00950954 185.6144029 -135.03454734 182.58728511 -138.07056782 179.57088443 C-140.82709701 176.83201004 -143.57206439 174.08209722 -146.30788373 171.32254013 C-147.29857911 170.32735871 -148.29357291 169.33643532 -149.29310382 168.35012839 C-150.64043778 167.01943357 -151.97117464 165.67199476 -153.30081969 164.32362479 C-154.04504418 163.57950899 -154.78926866 162.83539319 -155.5560454 162.06872843 C-157 160 -157 160 -156.89115862 157.91280477 C-155.32669603 154.55480381 -152.56302859 152.16457187 -149.9573822 149.59661865 C-149.31949361 148.95616678 -148.68160502 148.31571492 -148.02438647 147.65585542 C-145.87871718 145.505233 -143.72247882 143.36552873 -141.56616211 141.22558594 C-140.02844416 139.68871393 -138.49138595 138.15118156 -136.9549408 136.61303711 C-132.77587499 132.43310864 -128.58760712 128.26251071 -124.39766765 124.09348583 C-120.02275227 119.73729189 -115.65630011 115.37263196 -111.28895569 111.0088501 C-103.01472944 102.74395764 -94.73288379 94.4867439 -86.44829613 86.23223901 C-77.01812646 76.8355718 -67.59645108 67.43041353 -58.1754874 58.02451658 C-38.79311399 38.67352242 -19.40006331 19.33325822 0 0 Z " fill="#02E8D3" transform="translate(579,0)"/>
<path d="M0 0 C2.72988483 1.16673169 4.31043029 2.73917312 6.41242524 4.8393309 C7.27742071 5.69630336 8.14241617 6.55327582 9.03362362 7.43621715 C9.99089951 8.39974603 10.94803788 9.36341154 11.90505399 10.32719843 C12.92752279 11.34593298 13.95064728 12.36400979 14.97436934 13.38148494 C17.8031895 16.19689203 20.62252182 19.02163975 23.44047191 21.84792101 C26.50114926 24.91437896 29.57045504 27.97217927 32.63868721 31.03107463 C38.02073224 36.39916964 43.39712379 41.77287602 48.76990022 47.15024703 C56.75916886 55.14633013 64.75693196 63.13387593 72.75638222 71.11977147 C87.87143797 86.20987464 102.97624583 101.31020806 118.07788312 116.41373834 C129.73545175 128.07267818 141.39560624 139.72902602 153.05760469 151.38353484 C154.73097717 153.055857 156.4043483 154.72818052 158.07771809 156.40050538 C158.90832322 157.23059116 159.73892835 158.06067695 160.59470333 158.91591684 C161.42679646 159.74748983 162.25888959 160.57906282 163.11619766 161.43583499 C163.94964615 162.26875949 164.78309464 163.10168399 165.64179915 163.95984862 C189.0935326 187.39699207 212.54210629 210.83729302 235.98423948 234.28403895 C236.86856821 235.16853963 237.75289694 236.05304032 238.66402351 236.96434406 C243.14650995 241.44771944 247.62896845 245.93112275 252.11141723 250.41453579 C253.00170405 251.30501364 253.89199087 252.19549149 254.80925607 253.11295352 C256.60963239 254.91371693 258.41000709 256.71448196 260.21038018 258.5152486 C288.23559036 286.54643122 316.27149053 314.56688259 344.31574716 342.57900946 C375.7969736 374.02419936 407.26985804 405.47770509 438.73059471 436.94339572 C442.08186088 440.29513189 445.43315692 443.64683818 448.78447236 446.99852507 C449.60969462 447.82384972 450.43491688 448.64917436 451.28514588 449.49950884 C463.76877027 461.98433046 476.2589795 474.46253905 488.75252428 486.9374327 C502.95180853 501.11553011 517.14244543 515.30221559 531.32141864 529.50062665 C539.26550616 537.45507959 547.2165085 545.40247331 555.17741611 553.34009327 C560.48508285 558.63360218 565.78371709 563.93603596 571.07489919 569.24602211 C574.09600865 572.2773507 577.12104645 575.30446849 580.15706694 578.32086917 C582.91359613 581.05974356 585.6585635 583.80965639 588.39438284 586.56921347 C589.38507822 587.56439489 590.38007202 588.55531828 591.37960293 589.54162521 C592.7269369 590.87232004 594.05767376 592.21975884 595.38731881 593.56812881 C596.13154329 594.31224461 596.87576778 595.05636041 597.64254452 595.82302517 C599.08649911 597.8917536 599.08649911 597.8917536 598.97775972 599.97726774 C597.41370702 603.33695486 594.66459529 605.74629799 592.06965341 608.32852118 C591.44195047 608.96469367 590.81424753 609.60086615 590.16752328 610.25631659 C588.08971315 612.35753323 586.00087585 614.44735548 583.91071786 616.53628485 C582.46411644 617.98998402 581.01781607 619.44398281 579.5718049 620.89826911 C576.53964695 623.94387916 573.5016066 626.98347688 570.45979013 630.01943915 C566.55528267 633.91804056 562.66935682 637.83460355 558.78805532 641.75629084 C555.80703214 644.76310839 552.81467118 647.75843704 549.81890001 650.75055449 C548.38078004 652.19037248 546.94666155 653.63419842 545.51658906 655.08200972 C543.51988925 657.10074148 541.50808055 659.10308518 539.49152841 661.10195868 C538.60375963 662.00962233 538.60375963 662.00962233 537.69805612 662.93562262 C536.02843942 664.57127326 536.02843942 664.57127326 533.08649911 666.8917536 C529.26837003 666.67576273 527.375719 664.55703665 524.76057299 661.94417631 C523.89557752 661.08720384 523.03058205 660.23023138 522.1393746 659.34729006 C521.18209872 658.38376118 520.22496035 657.42009566 519.26794424 656.45630877 C518.24547544 655.43757422 517.22235095 654.41949741 516.19862889 653.40202226 C513.36980873 650.58661517 510.5504764 647.76186745 507.73252632 644.93558619 C504.67184897 641.86912824 501.60254318 638.81132793 498.53431102 635.75243257 C493.15226599 630.38433757 487.77587443 625.01063118 482.40309801 619.63326018 C474.41382937 611.63717708 466.41606626 603.64963127 458.41661601 595.66373574 C443.30156026 580.57363257 428.1967524 565.47329914 413.09511511 550.36976887 C401.43754647 538.71082903 389.77739199 527.05448119 378.11539354 515.39997237 C376.44202106 513.7276502 374.76864992 512.05532669 373.09528013 510.38300183 C372.26467501 509.55291604 371.43406988 508.72283026 370.5782949 507.86759036 C369.74620177 507.03601737 368.91410864 506.20444438 368.05680056 505.34767221 C366.80662783 504.09828547 366.80662783 504.09828547 365.53119908 502.82365858 C342.07946562 479.38651514 318.63089193 455.94621419 295.18875875 432.49946826 C294.30443002 431.61496757 293.42010129 430.73046689 292.50897472 429.81916315 C288.02648828 425.33578777 283.54402977 420.85238446 279.061581 416.36897142 C278.17129418 415.47849357 277.28100736 414.58801572 276.36374215 413.67055369 C274.56336583 411.86979028 272.76299113 410.06902525 270.96261805 408.26825861 C242.93740787 380.23707598 214.9015077 352.21662461 186.85725107 324.20449774 C155.37602463 292.75930785 123.90314019 261.30580212 92.44240351 229.84011148 C89.09113735 226.48837531 85.73984131 223.13666902 82.38852586 219.78498213 C81.5633036 218.95965749 80.73808135 218.13433284 79.88785235 217.28399836 C67.40422796 204.79917675 54.91401872 192.32096815 42.42047395 179.84607451 C28.2211897 165.66797709 14.0305528 151.48129161 -0.14842041 137.28288056 C-8.09250794 129.32842762 -16.04351028 121.38103389 -24.00441788 113.44341394 C-29.31208462 108.14990503 -34.61071886 102.84747125 -39.90190096 97.5374851 C-42.92301043 94.50615651 -45.94804822 91.47903872 -48.98406871 88.46263803 C-51.7405979 85.72376364 -54.48556527 82.97385082 -57.22138461 80.21429373 C-58.21208 79.21911232 -59.2070738 78.22818892 -60.2066047 77.241882 C-61.55393867 75.91118717 -62.88467553 74.56374836 -64.21432058 73.21537839 C-64.95854506 72.47126259 -65.70276955 71.72714679 -66.46954629 70.96048203 C-67.91350089 68.8917536 -67.91350089 68.8917536 -67.80476149 66.80623946 C-66.24070879 63.44655234 -63.49159707 61.03720921 -60.89665518 58.45498602 C-60.26895224 57.81881354 -59.6412493 57.18264105 -58.99452506 56.52719061 C-56.91671492 54.42597398 -54.82787763 52.33615173 -52.73771964 50.24722235 C-51.29111822 48.79352319 -49.84481784 47.33952439 -48.39880667 45.8852381 C-45.36664872 42.83962805 -42.32860837 39.80003032 -39.2867919 36.76406806 C-35.38228444 32.86546664 -31.49635859 28.94890366 -27.61505709 25.02721636 C-24.63403391 22.02039882 -21.64167296 19.02507016 -18.64590178 16.03295271 C-17.20778182 14.59313473 -15.77366332 13.14930878 -14.34359084 11.70149748 C-12.34689102 9.68276572 -10.33508233 7.68042203 -8.31853018 5.68154852 C-7.72668433 5.07643942 -7.13483847 4.47133032 -6.52505789 3.84788458 C-2.45547736 -0.13890591 -2.45547736 -0.13890591 0 0 Z " fill="#04E8D3" transform="translate(410.9135008864105,170.10824639722705)"/>
<path d="M0 0 C2.80878658 1.09804784 4.33307193 2.65227634 6.46741887 4.78475784 C7.33241434 5.6417303 8.1974098 6.49870276 9.08861725 7.38164409 C10.04589314 8.34517297 11.00303151 9.30883848 11.96004762 10.27262538 C12.98251642 11.29135993 14.00564091 12.30943673 15.02936297 13.32691189 C17.85818313 16.14231897 20.67751545 18.96706669 23.49546554 21.79334795 C26.55614289 24.8598059 29.62544867 27.91760621 32.69368084 30.97650157 C38.07572587 36.34459658 43.45211742 41.71830297 48.82489385 47.09567397 C56.81416249 55.09175707 64.81192559 63.07930287 72.81137585 71.06519841 C87.92643159 86.15530158 103.03123945 101.25563501 118.13287675 116.35916528 C129.79044538 128.01810512 141.45059987 139.67445296 153.11259832 151.32896178 C154.7859708 153.00128394 156.45934193 154.67360746 158.13271172 156.34593232 C158.96331685 157.1760181 159.79392198 158.00610389 160.64969696 158.86134378 C161.48179009 159.69291677 162.31388322 160.52448976 163.17119129 161.38126193 C164.00463978 162.21418643 164.83808827 163.04711093 165.69679278 163.90527556 C189.14852623 187.34241901 212.59709992 210.78271996 236.03923311 234.22946589 C236.92356184 235.11396658 237.80789057 235.99846726 238.71901714 236.909771 C243.20150358 241.39314638 247.68396208 245.87654969 252.16641086 250.35996273 C253.05669768 251.25044058 253.9469845 252.14091843 254.8642497 253.05838046 C256.66462602 254.85914387 258.46500072 256.6599089 260.26537381 258.46067554 C288.29058399 286.49185816 316.32648416 314.51230953 344.37074079 342.5244364 C375.85196723 373.9696263 407.32485167 405.42313203 438.78558834 436.88882266 C442.1368545 440.24055883 445.48815055 443.59226512 448.83946599 446.94395201 C449.66468825 447.76927666 450.48991051 448.5946013 451.3401395 449.44493578 C463.8237639 461.9297574 476.31397313 474.40796599 488.8075179 486.88285964 C503.00680216 501.06095705 517.19743905 515.24764253 531.37641227 529.44605359 C539.32049979 537.40050653 547.27150213 545.34790025 555.23240974 553.28552021 C560.54007648 558.57902912 565.83871071 563.8814629 571.12989282 569.19144905 C574.15100228 572.22277764 577.17604008 575.24989543 580.21206057 578.26629611 C582.96858976 581.00517051 585.71355713 583.75508333 588.44937647 586.51464041 C589.44007185 587.50982183 590.43506565 588.50074522 591.43459656 589.48705215 C592.78193053 590.81774698 594.11266739 592.16518579 595.44231244 593.51355575 C596.18653692 594.25767155 596.9307614 595.00178735 597.69753814 595.76845212 C599.14149274 597.83718054 599.14149274 597.83718054 598.98223531 599.97531557 C597.79828936 602.59722099 596.12232808 604.21477817 594.08070173 606.23854773 C593.21988492 607.09913794 592.35906812 607.95972815 591.47216596 608.84639685 C590.53675474 609.76632422 589.60134351 610.68625159 588.63758649 611.63405554 C587.67429198 612.59175274 586.71165925 613.55011601 585.7496623 614.50911658 C583.21956791 617.02777285 580.68059346 619.53728893 578.13966169 622.04500525 C575.54695597 624.60698786 572.96275319 627.17751556 570.37782087 629.74733679 C565.30733284 634.78567895 560.22741394 639.81441388 555.14149274 644.83718054 C551.69526713 643.35240524 549.46057631 641.40576918 546.81671729 638.76080208 C545.95197804 637.90055742 545.0872388 637.04031277 544.19629534 636.15400009 C543.2393526 635.19192581 542.28250126 634.22976062 541.32573118 633.26751463 C540.30335434 632.2466167 539.2805388 631.22615793 538.2573237 630.20610015 C535.4316057 627.38653881 532.61219398 624.56074285 529.79372131 621.7339415 C526.73215567 618.66552381 523.66480668 615.60289694 520.59817185 612.53954701 C515.2193374 607.16486647 509.8442434 601.78646756 504.47154989 596.40564864 C496.48248134 588.4045313 488.48770779 580.40913295 480.49173421 572.41491693 C467.04270179 558.9685151 453.59833765 545.5174548 440.15660657 532.06375449 C426.84314077 518.738464 413.52761732 505.41523524 400.20932569 492.09476798 C399.38195162 491.26725643 398.55457755 490.43974488 397.70213154 489.58715722 C393.50048993 485.38483897 389.29881138 481.18255764 385.0971186 476.98029054 C355.31868417 447.19765269 325.54489166 417.41037825 295.77381696 387.62038367 C266.84745117 358.675656 237.91899049 329.73302468 208.98768415 300.79323523 C208.09625887 299.9015469 207.2048336 299.00985858 206.28639544 298.09114939 C197.33452304 289.13664001 188.38260796 280.1821733 179.43066161 271.22773785 C161.1937048 252.9857083 142.95703293 234.74339391 124.72053327 216.50090735 C123.46274168 215.24270389 123.46274168 215.24270389 122.17954016 213.95908218 C66.16208513 157.92321863 10.15127294 101.88071521 -45.85850726 45.83718054 C-44.25507099 42.45700217 -42.47721761 40.1879599 -39.83946429 37.51174109 C-39.01165453 36.66794394 -38.18384478 35.82414679 -37.33094988 34.95478003 C-36.43512194 34.05358939 -35.539294 33.15239874 -34.61631976 32.22389929 C-33.69640246 31.29495352 -32.77648516 30.36600775 -31.82869158 29.40891211 C-29.88384032 27.44760242 -27.93466601 25.49070125 -25.98301898 23.53615515 C-23.48034228 21.02807509 -20.99424997 18.50420931 -18.51176844 15.97616046 C-16.14098037 13.56854732 -13.75257147 11.17868604 -11.36631976 8.78639929 C-10.47454028 7.8750875 -9.5827608 6.9637757 -8.6639577 6.02484839 C-7.82984362 5.19681204 -6.99572955 4.3687757 -6.13633929 3.51564734 C-5.03952334 2.41122542 -5.03952334 2.41122542 -3.92054949 1.28449195 C-1.85850726 -0.16281946 -1.85850726 -0.16281946 0 0 Z " fill="#06E8D3" transform="translate(331.8585072569549,249.16281945630908)"/>
<path d="M0 0 C2.84583587 1.06507527 4.34311698 2.61055532 6.49309846 4.75865768 C7.35809392 5.61563014 8.22308939 6.47260261 9.11429684 7.35554393 C10.07157272 8.31907281 11.0287111 9.28273832 11.98572721 10.24652522 C13.00819601 11.26525977 14.0313205 12.28333658 15.05504255 13.30081173 C17.88386272 16.11621881 20.70319504 18.94096653 23.52114512 21.76724779 C26.58182248 24.83370574 29.65112826 27.89150605 32.71936043 30.95040141 C38.10140545 36.31849642 43.47779701 41.69220281 48.85057344 47.06957381 C56.83984207 55.06565691 64.83760518 63.05320271 72.83705544 71.03909825 C87.95211118 86.12920142 103.05691904 101.22953485 118.15855634 116.33306512 C129.81612497 127.99200496 141.47627946 139.6483528 153.13827791 151.30286162 C154.81165039 152.97518379 156.48502152 154.6475073 158.15839131 156.31983216 C158.98899644 157.14991794 159.81960157 157.98000373 160.67537655 158.83524363 C161.50746968 159.66681662 162.33956281 160.4983896 163.19687088 161.35516177 C164.03031937 162.18808627 164.86376786 163.02101077 165.72247237 163.87917541 C189.17420582 187.31631885 212.62277951 210.7566198 236.0649127 234.20336573 C236.94924143 235.08786642 237.83357016 235.9723671 238.74469673 236.88367084 C243.22718317 241.36704622 247.70964167 245.85044953 252.19209045 250.33386257 C253.08237727 251.22434042 253.97266408 252.11481827 254.88992929 253.0322803 C256.69030561 254.83304371 258.49068031 256.63380874 260.29105339 258.43457538 C288.31626358 286.465758 316.35216375 314.48620937 344.39642038 342.49833624 C375.87764682 373.94352614 407.35053125 405.39703187 438.81126793 436.8627225 C442.16253409 440.21445867 445.51383014 443.56616496 448.86514558 446.91785185 C449.69036784 447.7431765 450.5155901 448.56850114 451.36581909 449.41883563 C463.84944348 461.90365724 476.33965272 474.38186584 488.83319749 486.85675948 C503.03248175 501.0348569 517.22311864 515.22154238 531.40209186 529.41995343 C539.34617938 537.37440637 547.29718172 545.32180009 555.25808933 553.25942005 C560.56575607 558.55292896 565.8643903 563.85536274 571.15557241 569.16534889 C574.17668187 572.19667748 577.20171967 575.22379527 580.23774016 578.24019596 C582.99426934 580.97907035 585.73923672 583.72898317 588.47505606 586.48854025 C589.46575144 587.48372167 590.46074524 588.47464506 591.46027615 589.46095199 C592.80761011 590.79164682 594.13834697 592.13908563 595.46799203 593.4874556 C596.21221651 594.23157139 596.95644099 594.97568719 597.72321773 595.74235196 C599.16717233 597.81108038 599.16717233 597.81108038 598.97775972 599.97726774 C598.0244993 602.13385324 596.92582552 603.44638325 595.27142038 605.12675421 C594.66376337 605.75032309 594.05610635 606.37389197 593.43003549 607.01635687 C592.76965784 607.67693595 592.10928018 608.33751502 591.42889108 609.01811163 C590.75171533 609.70290091 590.07453958 610.38769019 589.37684335 611.09323065 C587.9440551 612.53681739 586.50727635 613.97645282 585.06683053 615.41239874 C582.85938976 617.61886504 580.67413673 619.84579397 578.48943796 622.07475226 C577.09555796 623.47383737 575.70041743 624.87166802 574.30389108 626.26811163 C573.64958612 626.93881186 572.99528116 627.60951209 572.32114877 628.30053656 C571.70403528 628.90834464 571.08692178 629.51615271 570.45110788 630.14237921 C569.91229486 630.68324668 569.37348184 631.22411414 568.81834115 631.78137152 C567.16717233 632.81108038 567.16717233 632.81108038 565.29798933 632.58630886 C562.68657651 631.63623122 561.38532149 630.40236899 559.42293151 628.43713372 C558.68796849 627.70840013 557.95300547 626.97966654 557.19577085 626.22885012 C556.39373331 625.41835984 555.59169577 624.60786956 554.76535406 623.77281897 C553.90563201 622.91595927 553.04590996 622.05909956 552.16013573 621.17627441 C549.76209523 618.78316785 547.37100912 616.38346862 544.98253363 613.98083754 C542.38742495 611.37365385 539.78363014 608.7751703 537.18089719 606.17560189 C532.61612741 601.61397715 528.05696985 597.04680233 523.50139131 592.47599928 C516.72723282 585.67926531 509.94450297 578.89113441 503.15991344 572.10481474 C491.74799742 560.68953949 480.34294692 549.2674283 468.941615 537.8415827 C457.64768295 526.52347093 446.35023411 515.2088871 435.04820146 503.8988642 C434.34603398 503.19620025 433.64386649 502.49353629 432.9204212 501.76957949 C429.35454773 498.20123538 425.78860032 494.63296515 422.22261741 491.06473039 C414.97058475 483.80808158 407.719038 476.55094722 400.46764173 469.29366248 C399.74166905 468.56710051 399.01569636 467.84053855 398.26772451 467.09195955 C380.98045484 449.79041068 363.69813258 432.48392224 346.41643991 415.17680304 C345.66007849 414.41933144 344.90371706 413.66185984 344.1244356 412.88143456 C337.9959556 406.7439586 331.86748815 400.60647013 325.73904114 394.46896124 C308.0895644 376.7934023 290.43887593 359.11905368 272.78753366 341.44535773 C272.03142261 340.68828597 271.27531155 339.93121421 270.49628805 339.15120089 C253.24238356 321.87541306 235.98743855 304.60066574 218.7299098 287.32849829 C218.00512599 286.6030981 217.28034218 285.8776979 216.53359523 285.13031588 C209.29901152 277.88961162 202.06429192 270.64904318 194.82934637 263.40870047 C179.26769147 247.83533897 163.70908086 232.25895217 148.15645036 216.67657796 C136.82151348 205.3200149 125.48328665 193.96674622 114.14153953 182.61698442 C107.39577808 175.86620312 100.65291021 169.1125599 93.91401837 162.35492095 C89.41933502 157.84826715 84.92108599 153.34519403 80.41985905 148.84507597 C77.85074826 146.27638043 75.2833012 143.70607727 72.72020299 141.13138102 C69.96654275 138.36532453 67.20528172 135.60693984 64.44314947 132.8493418 C63.63877076 132.03885152 62.83439205 131.22836124 62.00563823 130.39331065 C61.27317873 129.66457707 60.54071923 128.93584348 59.78606399 128.18502705 C59.15476948 127.55274936 58.52347497 126.92047167 57.87305032 126.26903405 C56.12133029 124.58692644 56.12133029 124.58692644 53.16717233 123.81108038 C52.79592233 124.67733038 52.79592233 124.67733038 52.41717233 125.56108038 C50.98417245 128.14048018 49.38292557 129.8722963 47.16717233 131.81108038 C46.50717233 131.81108038 45.84717233 131.81108038 45.16717233 131.81108038 C46.72218214 127.99423812 49.20312728 125.61912306 52.16717233 122.81108038 C50.77780161 119.67522159 49.1668346 117.57106384 46.73096933 115.16801398 C46.0199859 114.46150702 45.30900247 113.75500006 44.57647409 113.0270838 C43.79663156 112.26228705 43.01678903 111.4974903 42.21331491 110.70951788 C41.39211664 109.89605902 40.57091836 109.08260016 39.7248353 108.24449103 C37.94155049 106.47886128 36.15607732 104.71543968 34.36868944 102.95396369 C31.54446128 100.16907828 28.7274656 97.37700873 25.91318979 94.58207648 C17.91051508 86.63695983 9.897844 78.7020187 1.87054147 70.78178351 C-2.56533199 66.40491701 -6.99225597 62.0192018 -11.4094886 57.62352126 C-13.74725048 55.29801631 -16.09098988 52.97906841 -18.44323073 50.66819708 C-21.06263068 48.09424483 -23.66643504 45.50544915 -26.26715384 42.91264288 C-27.05306906 42.14784613 -27.83898428 41.38304938 -28.64871512 40.59507697 C-29.35123908 39.88857001 -30.05376303 39.18206305 -30.77757559 38.45414679 C-31.39534463 37.84358435 -32.01311368 37.23302191 -32.64960299 36.60395758 C-33.83282767 34.81108038 -33.83282767 34.81108038 -33.60316954 32.68742793 C-32.69345528 30.47160639 -31.61672098 29.20141379 -29.93707572 27.49540656 C-29.3294187 26.87183768 -28.72176169 26.2482688 -28.09569083 25.6058039 C-27.10512435 24.61493529 -27.10512435 24.61493529 -26.09454642 23.60404913 C-25.41737067 22.91925986 -24.74019492 22.23447058 -24.04249869 21.52893012 C-22.60971044 20.08534338 -21.17293168 18.64570795 -19.73248587 17.20976203 C-17.5250451 15.00329573 -15.33979207 12.7763668 -13.15509329 10.54740851 C-11.76121329 9.1483234 -10.36607276 7.75049275 -8.96954642 6.35404913 C-8.31524146 5.68334891 -7.66093649 5.01264868 -6.98680411 4.32162421 C-6.36969061 3.71381613 -5.75257712 3.10600806 -5.11676322 2.47978156 C-4.5779502 1.93891409 -4.03913718 1.39804663 -3.48399649 0.84078925 C-1.83282767 -0.18891962 -1.83282767 -0.18891962 0 0 Z " fill="#07E8D3" transform="translate(229.83282766863704,351.1889196150005)"/>
<path d="M0 0 C6.05147916 5.01211614 11.5933221 10.45418725 17.13805294 16.01500511 C18.15902326 17.0352349 19.18021303 18.05524512 20.20160106 19.07505673 C23.00656497 21.87695961 25.80840901 24.68196414 28.60975239 27.4874862 C31.65829778 30.53947196 34.70975152 33.58854755 37.76083714 36.63799345 C43.10734608 41.98242993 48.45199583 47.32872002 53.79543304 52.67622757 C61.74093545 60.62776559 69.68930385 68.57643412 77.6382634 76.52451593 C91.00966551 89.89460413 104.37873869 103.2670188 117.74648857 116.64075851 C130.98326086 129.88344675 144.22106571 143.12510139 157.46025276 156.36537552 C158.28326157 157.18845307 159.10627038 158.01153062 159.95421885 158.85954991 C164.13382813 163.03949752 168.31345589 167.21942666 172.49309076 171.39934869 C202.10147956 201.0098382 231.70754894 230.62264577 261.31225586 260.23681641 C290.07377732 289.00752144 318.83634836 317.77717652 347.6003418 346.54541016 C348.48689033 347.43209021 349.37343885 348.31877027 350.28685249 349.23231941 C359.18989526 358.13668069 368.09295938 367.04102063 376.99603914 375.94534492 C395.13282353 394.08466556 413.26946541 412.22412869 431.40602112 430.36367798 C432.23992051 431.19771466 433.0738199 432.03175134 433.93298897 432.89106186 C489.62438003 488.59165441 545.31244882 544.2955685 601 600 C600.06553869 601.09902514 599.12978595 602.19695228 598.19351196 603.29443359 C597.41208045 604.21172745 597.41208045 604.21172745 596.61486244 605.14755249 C592.37705264 610.00884594 587.76746571 614.53806669 583.23144531 619.11865234 C581.98487661 620.38194251 580.74372029 621.65059449 579.5078125 622.92431641 C577.71240385 624.77417443 575.90137792 626.6073235 574.0859375 628.4375 C573.53481293 629.01129395 572.98368835 629.58508789 572.41586304 630.17626953 C570.83740234 631.74609375 570.83740234 631.74609375 568 634 C564.18092401 633.77488238 562.29121733 631.66727874 559.67407387 629.0524227 C558.80907841 628.19545024 557.94408294 627.33847778 557.05287549 626.45553645 C556.09559961 625.49200757 555.13846124 624.52834206 554.18144512 623.56455517 C553.15897632 622.54582062 552.13585183 621.52774381 551.11212978 620.51026866 C548.28330961 617.69486157 545.46397729 614.87011385 542.64602721 612.04383259 C539.58534985 608.97737464 536.51604407 605.91957433 533.4478119 602.86067897 C528.06576688 597.49258397 522.68937532 592.11887758 517.31659889 586.74150658 C509.32733026 578.74542348 501.32956715 570.75787767 493.33011689 562.77198214 C478.21506115 547.68187896 463.11025329 532.58154554 448.00861599 517.47801527 C436.35104736 505.81907543 424.69089288 494.16272758 413.02889442 482.50821877 C411.35552194 480.8358966 409.68215081 479.16357308 408.00878102 477.49124822 C407.17817589 476.66116244 406.34757077 475.83107666 405.49179579 474.97583676 C404.65970265 474.14426377 403.82760952 473.31269078 402.97030145 472.45591861 C401.72012871 471.20653186 401.72012871 471.20653186 400.44469996 469.93190498 C376.99296651 446.49476153 353.54439282 423.05446059 330.10225964 399.60771465 C329.21793091 398.72321397 328.33360218 397.83871328 327.4224756 396.92740955 C322.93998916 392.44403417 318.45753066 387.96063085 313.97508188 383.47721782 C313.08479506 382.58673996 312.19450825 381.69626211 311.27724304 380.77880008 C309.47686672 378.97803667 307.67649202 377.17727165 305.87611894 375.376505 C277.85090875 347.34532238 249.81500858 319.32487101 221.77075195 291.31274414 C190.28952551 259.86755425 158.81664108 228.41404851 127.3559044 196.94835788 C124.00463824 193.59662171 120.6533422 190.24491542 117.30202675 186.89322853 C116.47680449 186.06790389 115.65158223 185.24257924 114.80135324 184.39224476 C102.31772885 171.90742314 89.82751961 159.42921455 77.33397484 146.95432091 C63.13469059 132.77622349 48.94405369 118.58953801 34.76508047 104.39112695 C26.82099295 96.43667402 18.86999061 88.48928029 10.909083 80.55166034 C5.60141626 75.25815143 0.30278203 69.95571764 -4.98840007 64.64573149 C-8.00950954 61.6144029 -11.03454734 58.58728511 -14.07056782 55.57088443 C-16.82709701 52.83201004 -19.57206439 50.08209722 -22.30788373 47.32254013 C-23.29857911 46.32735871 -24.29357291 45.33643532 -25.29310382 44.35012839 C-26.64043778 43.01943357 -27.97117464 41.67199476 -29.30081969 40.32362479 C-30.04504418 39.57950899 -30.78926866 38.83539319 -31.5560454 38.06872843 C-33 36 -33 36 -32.81464241 33.83576481 C-31.83208063 31.62160028 -30.67236269 30.31151136 -28.94897461 28.60839844 C-28.30838608 27.9680365 -27.66779755 27.32767456 -27.00779724 26.66790771 C-26.31299759 25.98859192 -25.61819794 25.30927612 -24.90234375 24.609375 C-24.19348526 23.90476135 -23.48462677 23.20014771 -22.75428772 22.47418213 C-20.4889672 20.22565215 -18.21343792 17.98777762 -15.9375 15.75 C-14.39970665 14.22725292 -12.86258869 12.70382346 -11.32617188 11.1796875 C-7.55857946 7.4451694 -3.78196151 3.71995896 0 0 Z " fill="#07E8D3" transform="translate(274,305)"/>
<path d="M0 0 C2.78976586 1.11474383 4.32774541 2.67342739 6.45416089 4.79798435 C7.31915636 5.65495681 8.18415182 6.51192927 9.07535927 7.3948706 C10.03263516 8.35839948 10.98977353 9.32206499 11.94678964 10.28585188 C12.96925844 11.30458643 13.99238293 12.32266324 15.01610499 13.34013839 C17.84492515 16.15554548 20.66425747 18.9802932 23.48220756 21.80657446 C26.54288491 24.87303241 29.61219069 27.93083272 32.68042286 30.98972808 C38.06246789 36.35782309 43.43885944 41.73152947 48.81163587 47.10890048 C56.80090451 55.10498358 64.79866761 63.09252938 72.79811787 71.07842492 C87.91317361 86.16852809 103.01798147 101.26886151 118.11961877 116.37239179 C129.7771874 128.03133163 141.43734189 139.68767947 153.09934034 151.34218829 C154.77271282 153.01451045 156.44608395 154.68683397 158.11945374 156.35915883 C158.95005887 157.18924461 159.780664 158.0193304 160.63643898 158.87457029 C161.46853211 159.70614328 162.30062524 160.53771627 163.15793331 161.39448844 C163.9913818 162.22741294 164.82483029 163.06033744 165.6835348 163.91850207 C189.13526825 187.35564552 212.58384194 210.79594647 236.02597513 234.2426924 C236.91030386 235.12719308 237.79463259 236.01169377 238.70575916 236.92299751 C243.1882456 241.40637289 247.6707041 245.8897762 252.15315288 250.37318924 C253.0434397 251.26366709 253.93372652 252.15414494 254.85099172 253.07160697 C256.65136804 254.87237038 258.45174274 256.67313541 260.25211583 258.47390205 C288.27732601 286.50508467 316.31322618 314.52553604 344.35748281 342.53766291 C375.83870925 373.98285281 407.31159369 405.43635854 438.77233036 436.90204917 C442.12359652 440.25378534 445.47489257 443.60549163 448.82620801 446.95717852 C449.65143027 447.78250317 450.47665253 448.60782781 451.32688152 449.45816229 C463.81050592 461.94298391 476.30071515 474.4211925 488.79425992 486.89608615 C502.99354418 501.07418356 517.18418107 515.26086904 531.36315429 529.4592801 C539.30724181 537.41373304 547.25824415 545.36112676 555.21915176 553.29874672 C560.5268185 558.59225563 565.82545273 563.89468941 571.11663484 569.20467556 C574.1377443 572.23600415 577.1627821 575.26312194 580.19880259 578.27952262 C582.95533178 581.01839701 585.70029915 583.76830984 588.43611849 586.52786692 C589.42681387 587.52304834 590.42180767 588.51397173 591.42133858 589.50027866 C592.76867255 590.83097349 594.09940941 592.17841229 595.42905446 593.52678226 C596.17327894 594.27089806 596.91750342 595.01501386 597.68428016 595.78167862 C599.12823476 597.85040705 599.12823476 597.85040705 598.97730768 599.97651434 C596.78506791 604.81475856 592.02267242 608.4662736 588.31573476 612.16290705 C587.39985586 613.10714533 586.48397695 614.05138362 585.54034414 615.02423518 C584.65540273 615.91175471 583.77046133 616.79927424 582.85870351 617.7136883 C582.0481249 618.53135676 581.23754629 619.34902522 580.40240468 620.19147151 C578.12823476 621.85040705 578.12823476 621.85040705 576.25646953 621.70081411 C573.46670367 620.58607028 571.92872411 619.02738672 569.80230864 616.90282976 C568.93731317 616.04585729 568.0723177 615.18888483 567.18111025 614.30594351 C566.22383437 613.34241463 565.266696 612.37874911 564.30967988 611.41496222 C563.28721109 610.39622767 562.2640866 609.37815086 561.24036454 608.36067571 C558.41154438 605.54526862 555.59221205 602.7205209 552.77426197 599.89423964 C549.71358462 596.82778169 546.64427883 593.76998138 543.57604666 590.71108602 C538.19400164 585.34299102 532.81761008 579.96928463 527.44483365 574.59191363 C519.45556502 566.59583053 511.45780191 558.60828472 503.45835166 550.62238919 C488.34329591 535.53228602 473.23848805 520.43195259 458.13685076 505.32842232 C446.47928212 493.66948248 434.81912764 482.01313464 423.15712919 470.35862582 C421.4837567 468.68630365 419.81038557 467.01398014 418.13701578 465.34165528 C417.30641066 464.51156949 416.47580553 463.68148371 415.62003055 462.82624381 C414.78793742 461.99467082 413.95584429 461.16309783 413.09853621 460.30632566 C411.84836348 459.05693892 411.84836348 459.05693892 410.57293473 457.78231203 C387.12120127 434.34516859 363.67262758 410.90486764 340.2304944 387.45812171 C339.34616567 386.57362102 338.46183694 385.68912034 337.55071037 384.7778166 C333.06822393 380.29444122 328.58576542 375.81103791 324.10331665 371.32762487 C323.21302983 370.43714702 322.32274301 369.54666917 321.4054778 368.62920714 C319.60510148 366.82844373 317.80472678 365.0276787 316.0043537 363.22691206 C287.97914352 335.19572943 259.94324334 307.17527806 231.89898672 279.16315119 C200.41776028 247.7179613 168.94487584 216.26445557 137.48413916 184.79876493 C134.132873 181.44702876 130.78157696 178.09532247 127.43026151 174.74363558 C126.60503925 173.91831094 125.77981699 173.09298629 124.929588 172.24265181 C112.44596361 159.7578302 99.95575437 147.2796216 87.4622096 134.80472796 C73.26292535 120.62663054 59.07228845 106.43994506 44.89331524 92.24153401 C36.94922771 84.28708107 28.99822537 76.33968734 21.03731777 68.40206739 C15.72965102 63.10855848 10.43101679 57.8061247 5.13983469 52.49613855 C2.11872522 49.46480996 -0.90631257 46.43769217 -3.94233306 43.42129148 C-6.69886225 40.68241709 -9.44382962 37.93250427 -12.17964897 35.17294718 C-13.17034435 34.17776577 -14.16533815 33.18684237 -15.16486906 32.20053545 C-16.51220302 30.86984062 -17.84293988 29.52240181 -19.17258493 28.17403184 C-19.91680942 27.42991604 -20.6610339 26.68580024 -21.42781064 25.91913548 C-22.87176524 23.85040705 -22.87176524 23.85040705 -22.72083815 21.72429977 C-20.52859839 16.88605554 -15.76620289 13.2345405 -12.05926524 9.53790705 C-11.14338633 8.59366877 -10.22750742 7.64943049 -9.28387461 6.67657893 C-8.39893321 5.7890594 -7.5139918 4.90153987 -6.60223399 3.9871258 C-5.79165537 3.16945735 -4.98107676 2.35178889 -4.14593516 1.5093426 C-1.87176524 -0.14959295 -1.87176524 -0.14959295 0 0 Z " fill="#0EE8D4" transform="translate(116.87176523730159,464.14959294721484)"/>
<path d="M0 0 C2.78976586 1.11474383 4.32774541 2.67342739 6.45416089 4.79798435 C7.31915636 5.65495681 8.18415182 6.51192927 9.07535927 7.3948706 C10.03263516 8.35839948 10.98977353 9.32206499 11.94678964 10.28585188 C12.96925844 11.30458643 13.99238293 12.32266324 15.01610499 13.34013839 C17.84492515 16.15554548 20.66425747 18.9802932 23.48220756 21.80657446 C26.54288491 24.87303241 29.61219069 27.93083272 32.68042286 30.98972808 C38.06246789 36.35782309 43.43885944 41.73152947 48.81163587 47.10890048 C56.80090451 55.10498358 64.79866761 63.09252938 72.79811787 71.07842492 C87.91317361 86.16852809 103.01798147 101.26886151 118.11961877 116.37239179 C129.7771874 128.03133163 141.43734189 139.68767947 153.09934034 151.34218829 C154.77271282 153.01451045 156.44608395 154.68683397 158.11945374 156.35915883 C158.95005887 157.18924461 159.780664 158.0193304 160.63643898 158.87457029 C161.46853211 159.70614328 162.30062524 160.53771627 163.15793331 161.39448844 C163.9913818 162.22741294 164.82483029 163.06033744 165.6835348 163.91850207 C189.13526825 187.35564552 212.58384194 210.79594647 236.02597513 234.2426924 C236.91030386 235.12719308 237.79463259 236.01169377 238.70575916 236.92299751 C243.1882456 241.40637289 247.6707041 245.8897762 252.15315288 250.37318924 C253.0434397 251.26366709 253.93372652 252.15414494 254.85099172 253.07160697 C256.65136804 254.87237038 258.45174274 256.67313541 260.25211583 258.47390205 C288.27732601 286.50508467 316.31322618 314.52553604 344.35748281 342.53766291 C375.83870925 373.98285281 407.31159369 405.43635854 438.77233036 436.90204917 C442.12359652 440.25378534 445.47489257 443.60549163 448.82620801 446.95717852 C449.65143027 447.78250317 450.47665253 448.60782781 451.32688152 449.45816229 C463.81050592 461.94298391 476.30071515 474.4211925 488.79425992 486.89608615 C502.99354418 501.07418356 517.18418107 515.26086904 531.36315429 529.4592801 C539.30724181 537.41373304 547.25824415 545.36112676 555.21915176 553.29874672 C560.5268185 558.59225563 565.82545273 563.89468941 571.11663484 569.20467556 C574.1377443 572.23600415 577.1627821 575.26312194 580.19880259 578.27952262 C582.95533178 581.01839701 585.70029915 583.76830984 588.43611849 586.52786692 C589.42681387 587.52304834 590.42180767 588.51397173 591.42133858 589.50027866 C592.76867255 590.83097349 594.09940941 592.17841229 595.42905446 593.52678226 C596.17327894 594.27089806 596.91750342 595.01501386 597.68428016 595.78167862 C599.12823476 597.85040705 599.12823476 597.85040705 598.97730768 599.97651434 C596.78506791 604.81475856 592.02267242 608.4662736 588.31573476 612.16290705 C587.39985586 613.10714533 586.48397695 614.05138362 585.54034414 615.02423518 C584.65540273 615.91175471 583.77046133 616.79927424 582.85870351 617.7136883 C582.0481249 618.53135676 581.23754629 619.34902522 580.40240468 620.19147151 C578.12823476 621.85040705 578.12823476 621.85040705 576.25646953 621.70081411 C573.46670367 620.58607028 571.92872411 619.02738672 569.80230864 616.90282976 C568.93731317 616.04585729 568.0723177 615.18888483 567.18111025 614.30594351 C566.22383437 613.34241463 565.266696 612.37874911 564.30967988 611.41496222 C563.28721109 610.39622767 562.2640866 609.37815086 561.24036454 608.36067571 C558.41154438 605.54526862 555.59221205 602.7205209 552.77426197 599.89423964 C549.71358462 596.82778169 546.64427883 593.76998138 543.57604666 590.71108602 C538.19400164 585.34299102 532.81761008 579.96928463 527.44483365 574.59191363 C519.45556502 566.59583053 511.45780191 558.60828472 503.45835166 550.62238919 C488.34329591 535.53228602 473.23848805 520.43195259 458.13685076 505.32842232 C446.47928212 493.66948248 434.81912764 482.01313464 423.15712919 470.35862582 C421.4837567 468.68630365 419.81038557 467.01398014 418.13701578 465.34165528 C417.30641066 464.51156949 416.47580553 463.68148371 415.62003055 462.82624381 C414.78793742 461.99467082 413.95584429 461.16309783 413.09853621 460.30632566 C411.84836348 459.05693892 411.84836348 459.05693892 410.57293473 457.78231203 C387.12120127 434.34516859 363.67262758 410.90486764 340.2304944 387.45812171 C339.34616567 386.57362102 338.46183694 385.68912034 337.55071037 384.7778166 C333.06822393 380.29444122 328.58576542 375.81103791 324.10331665 371.32762487 C323.21302983 370.43714702 322.32274301 369.54666917 321.4054778 368.62920714 C319.60510148 366.82844373 317.80472678 365.0276787 316.0043537 363.22691206 C287.97914352 335.19572943 259.94324334 307.17527806 231.89898672 279.16315119 C200.41776028 247.7179613 168.94487584 216.26445557 137.48413916 184.79876493 C134.132873 181.44702876 130.78157696 178.09532247 127.43026151 174.74363558 C126.60503925 173.91831094 125.77981699 173.09298629 124.929588 172.24265181 C112.44596361 159.7578302 99.95575437 147.2796216 87.4622096 134.80472796 C73.26292535 120.62663054 59.07228845 106.43994506 44.89331524 92.24153401 C36.94922771 84.28708107 28.99822537 76.33968734 21.03731777 68.40206739 C15.72965102 63.10855848 10.43101679 57.8061247 5.13983469 52.49613855 C2.11872522 49.46480996 -0.90631257 46.43769217 -3.94233306 43.42129148 C-6.69886225 40.68241709 -9.44382962 37.93250427 -12.17964897 35.17294718 C-13.17034435 34.17776577 -14.16533815 33.18684237 -15.16486906 32.20053545 C-16.51220302 30.86984062 -17.84293988 29.52240181 -19.17258493 28.17403184 C-19.91680942 27.42991604 -20.6610339 26.68580024 -21.42781064 25.91913548 C-22.87176524 23.85040705 -22.87176524 23.85040705 -22.72083815 21.72429977 C-20.52859839 16.88605554 -15.76620289 13.2345405 -12.05926524 9.53790705 C-11.14338633 8.59366877 -10.22750742 7.64943049 -9.28387461 6.67657893 C-8.39893321 5.7890594 -7.5139918 4.90153987 -6.60223399 3.9871258 C-5.79165537 3.16945735 -4.98107676 2.35178889 -4.14593516 1.5093426 C-1.87176524 -0.14959295 -1.87176524 -0.14959295 0 0 Z " fill="#0EE8D4" transform="translate(150.8717652373016,430.14959294721484)"/>
<path d="M0 0 C3.15168057 1.39510798 5.26768851 3.02493386 7.6877594 5.46743774 C8.40412567 6.18539017 9.12049194 6.90334259 9.85856628 7.64305115 C10.63428482 8.43067337 11.41000336 9.21829559 12.20922852 10.02978516 C13.03404724 10.85913071 13.85886597 11.68847626 14.7086792 12.54295349 C16.49893389 14.34416767 18.28690969 16.14764907 20.07287788 17.95311356 C22.89599391 20.80633237 25.72553303 23.65308241 28.55735779 26.49765015 C35.58755242 33.56190977 42.60835542 40.63548349 49.62438965 47.71380615 C55.08150676 53.21933418 60.54174653 58.72167106 66.01261467 64.21353948 C68.36729721 66.57786864 70.71788892 68.94606164 73.06341743 71.31947708 C75.67564995 73.96272596 78.29680835 76.59680307 80.92016602 79.22900391 C81.69790878 80.02067459 82.47565155 80.81234528 83.27696228 81.62800598 C83.99050873 82.34031876 84.70405518 83.05263153 85.43922424 83.78652954 C86.36751211 84.72286193 86.36751211 84.72286193 87.31455326 85.67811012 C89.03643158 87.30856576 89.03643158 87.30856576 92 87 C92.14288455 87.87385738 92.14288455 87.87385738 92.28865566 88.76536845 C93.1605628 91.50439523 94.35207773 92.7261717 96.38150936 94.75410485 C97.1119326 95.49126996 97.84235583 96.22843508 98.5949131 96.98793852 C99.8134838 98.19468767 99.8134838 98.19468767 101.0566721 99.42581558 C101.91551977 100.28812479 102.77436745 101.150434 103.65924081 102.03887379 C106.05791389 104.44414759 108.46318062 106.84247167 110.87138342 109.238182 C113.48458034 111.84110159 116.08908758 114.45269111 118.69468397 117.06321502 C123.26683711 121.64159926 127.8445556 126.21435974 132.42591476 130.78353119 C139.23824479 137.57778862 146.04198895 144.38059494 152.84396939 151.18521178 C164.28508978 162.63027813 175.73319248 174.06833623 187.18525887 185.50244904 C198.52806081 196.82751415 209.867768 208.15566321 221.20333672 219.48796844 C222.25962985 220.54395225 222.25962985 220.54395225 223.33726224 221.62126907 C226.91334014 225.196332 230.48936264 228.77145034 234.06536382 232.34659001 C259.40973253 257.68465356 284.76105311 283.01575111 310.11645508 308.34277344 C334.7524591 332.95123479 359.38531789 357.56283753 384.01391602 382.17871094 C384.77276489 382.93716524 385.53161377 383.69561953 386.31345807 384.4770573 C393.9339639 392.09360765 401.55440574 399.71022204 409.17480069 407.32688334 C424.69912495 422.84359849 440.22387641 438.35988619 455.74888611 453.87591553 C456.46273719 454.58935474 457.17658827 455.30279395 457.91207121 456.03785254 C505.60089332 503.69906172 553.29967348 551.35030501 601 599 C598.35040857 604.60025819 593.95486031 608.45381666 589.625 612.8125 C588.76132812 613.70904297 587.89765625 614.60558594 587.0078125 615.52929688 C586.1725 616.37169922 585.3371875 617.21410156 584.4765625 618.08203125 C583.71424316 618.85780518 582.95192383 619.6335791 582.16650391 620.43286133 C580 622 580 622 578.13496389 621.84466975 C575.33615616 620.73735911 573.80438832 619.18087523 571.67407387 617.0524227 C570.80907841 616.19545024 569.94408294 615.33847778 569.05287549 614.45553645 C568.09559961 613.49200757 567.13846124 612.52834206 566.18144512 611.56455517 C565.15897632 610.54582062 564.13585183 609.52774381 563.11212978 608.51026866 C560.28330961 605.69486157 557.46397729 602.87011385 554.64602721 600.04383259 C551.58534985 596.97737464 548.51604407 593.91957433 545.4478119 590.86067897 C540.06576688 585.49258397 534.68937532 580.11887758 529.31659889 574.74150658 C521.32733026 566.74542348 513.32956715 558.75787767 505.33011689 550.77198214 C490.21506115 535.68187896 475.11025329 520.58154554 460.00861599 505.47801527 C448.35104736 493.81907543 436.69089288 482.16272758 425.02889442 470.50821877 C423.35552194 468.8358966 421.68215081 467.16357308 420.00878102 465.49124822 C419.17817589 464.66116244 418.34757077 463.83107666 417.49179579 462.97583676 C416.65970265 462.14426377 415.82760952 461.31269078 414.97030145 460.45591861 C413.72012871 459.20653186 413.72012871 459.20653186 412.44469996 457.93190498 C388.99296651 434.49476153 365.54439282 411.05446059 342.10225964 387.60771465 C341.21793091 386.72321397 340.33360218 385.83871328 339.4224756 384.92740955 C334.93998916 380.44403417 330.45753066 375.96063085 325.97508188 371.47721782 C325.08479506 370.58673996 324.19450825 369.69626211 323.27724304 368.77880008 C321.47686672 366.97803667 319.67649202 365.17727165 317.87611894 363.376505 C289.85090875 335.34532238 261.81500858 307.32487101 233.77075195 279.31274414 C202.28952551 247.86755425 170.81664108 216.41404851 139.3559044 184.94835788 C136.00463824 181.59662171 132.6533422 178.24491542 129.30202675 174.89322853 C128.47680449 174.06790389 127.65158223 173.24257924 126.80135324 172.39224476 C114.31772885 159.90742314 101.82751961 147.42921455 89.33397484 134.95432091 C75.13469059 120.77622349 60.94405369 106.58953801 46.76508047 92.39112695 C38.82099295 84.43667402 30.86999061 76.48928029 22.909083 68.55166034 C17.60141626 63.25815143 12.30278203 57.95571764 7.01159993 52.64573149 C3.99049046 49.6144029 0.96545266 46.58728511 -2.07056782 43.57088443 C-4.82709701 40.83201004 -7.57206439 38.08209722 -10.30788373 35.32254013 C-11.29857911 34.32735871 -12.29357291 33.33643532 -13.29310382 32.35012839 C-14.64043778 31.01943357 -15.97117464 29.67199476 -17.30081969 28.32362479 C-18.04504418 27.57950899 -18.78926866 26.83539319 -19.5560454 26.06872843 C-21 24 -21 24 -20.8530402 21.87290089 C-19.58942118 19.09854959 -17.69750804 17.3635928 -15.52734375 15.234375 C-14.62822266 14.34492188 -13.72910156 13.45546875 -12.80273438 12.5390625 C-11.85720703 11.61867188 -10.91167969 10.69828125 -9.9375 9.75 C-8.97783027 8.80538327 -8.01883771 7.86007805 -7.06054688 6.9140625 C-4.71361172 4.60250828 -2.35996609 2.2982366 0 0 Z " fill="#08E8D3" transform="translate(183,396)"/>
<path d="M0 0 C3.44622562 1.48477531 5.68091643 3.43141137 8.32477546 6.07637846 C9.62188432 7.36674545 9.62188432 7.36674545 10.9451974 8.68318045 C11.90214014 9.64525473 12.85899149 10.60741992 13.81576157 11.56966591 C14.83813841 12.59056385 15.86095394 13.61102261 16.88416904 14.63108039 C19.70988704 17.45064173 22.52929876 20.27643769 25.34777143 23.10323905 C28.40933707 26.17165674 31.47668606 29.2342836 34.54332089 32.29763353 C39.92215534 37.67231408 45.29724934 43.05071298 50.66994286 48.43153191 C58.65901141 56.43264924 66.65378495 64.42804759 74.64975854 72.42226361 C88.09879095 85.86866544 101.54315509 99.31972574 114.98488617 112.77342606 C128.29835197 126.09871654 141.61387542 139.4219453 154.93216705 152.74241257 C155.75954112 153.56992412 156.58691519 154.39743566 157.4393612 155.25002332 C161.64100281 159.45234158 165.84268136 163.6546229 170.04437414 167.85689001 C199.82280858 197.63952786 229.59660109 227.42680229 259.36767578 257.21679688 C288.29404158 286.16152454 317.22250225 315.10415587 346.15380859 344.04394531 C347.04523387 344.93563364 347.93665914 345.82732197 348.85509731 346.74603115 C357.8069697 355.70054054 366.75888478 364.65500725 375.71083113 373.6094427 C393.94778794 391.85147225 412.18445982 410.09378663 430.42095947 428.33627319 C431.67875106 429.59447665 431.67875106 429.59447665 432.96195259 430.87809837 C488.97940761 486.91396191 544.9902198 542.95646533 601 599 C599.30413874 602.63303084 597.26199512 604.94549046 594.375 607.75 C593.55773437 608.54921875 592.74046875 609.3484375 591.8984375 610.171875 C590.95871094 611.07679688 590.95871094 611.07679688 590 612 C583.94852084 606.98788386 578.4066779 601.54581275 572.86194706 595.98499489 C571.84097674 594.9647651 570.81978697 593.94475488 569.79839894 592.92494327 C566.99343503 590.12304039 564.19159099 587.31803586 561.39024761 584.5125138 C558.34170222 581.46052804 555.29024848 578.41145245 552.23916286 575.36200655 C546.89265392 570.01757007 541.54800417 564.67127998 536.20456696 559.32377243 C528.25906455 551.37223441 520.31069615 543.42356588 512.3617366 535.47548407 C498.99033449 522.10539587 485.62126131 508.7329812 472.25351143 495.35924149 C459.01673914 482.11655325 445.77893429 468.87489861 432.53974724 455.63462448 C431.71673843 454.81154693 430.89372962 453.98846938 430.04578115 453.14045009 C425.86617187 448.96050248 421.68654411 444.78057334 417.50690924 440.60065131 C387.89852044 410.9901618 358.29245106 381.37735423 328.68774414 351.76318359 C299.92622268 322.99247856 271.16365164 294.22282348 242.3996582 265.45458984 C241.51310967 264.56790979 240.62656115 263.68122973 239.71314751 262.76768059 C230.81010474 253.86331931 221.90704062 244.95897937 213.00396086 236.05465508 C194.86717647 217.91533444 176.73053459 199.77587131 158.59397888 181.63632202 C157.3431298 180.385267 157.3431298 180.385267 156.06701103 179.10893814 C100.37561997 123.40834559 44.68755118 67.7044315 -11 12 C-10.06122074 10.8934059 -9.12079084 9.78821201 -8.1796875 8.68359375 C-7.39440674 7.76018188 -7.39440674 7.76018188 -6.59326172 6.81811523 C-4.4984209 4.42763415 -2.28027529 2.21320837 0 0 Z " fill="#16E9D5" transform="translate(59,520)"/>
<path d="M0 0 C2.80583358 1.10243376 4.33329015 2.65703627 6.46690198 4.7887833 C7.33189744 5.64575576 8.19689291 6.50272822 9.08810036 7.38566955 C10.04537624 8.34919843 11.00251462 9.31286394 11.95953073 10.27665083 C12.98199953 11.29538538 14.00512402 12.31346219 15.02884607 13.33093734 C17.85766624 16.14634443 20.67699856 18.97109215 23.49494865 21.79737341 C26.555626 24.86383136 29.62493178 27.92163167 32.69316395 30.98052703 C38.07520897 36.34862204 43.45160053 41.72232843 48.82437696 47.09969943 C56.81364559 55.09578253 64.8114087 63.08332833 72.81085896 71.06922387 C87.9259147 86.15932704 103.03072256 101.25966046 118.13235986 116.36319074 C129.78992849 128.02213058 141.45008298 139.67847842 153.11208143 151.33298724 C154.78545391 153.0053094 156.45882504 154.67763292 158.13219483 156.34995778 C158.96279996 157.18004356 159.79340509 158.01012935 160.64918007 158.86536924 C161.4812732 159.69694223 162.31336633 160.52851522 163.1706744 161.38528739 C164.00412289 162.21821189 164.83757138 163.05113639 165.69627589 163.90930102 C189.14800934 187.34644447 212.59658303 210.78674542 236.03871622 234.23349135 C237.36520931 235.56024238 237.36520931 235.56024238 238.71850025 236.91379646 C243.20098669 241.39717184 247.68344519 245.88057515 252.16589397 250.36398819 C253.05618079 251.25446604 253.94646761 252.14494389 254.86373281 253.06240592 C256.66410913 254.86316933 258.46448383 256.66393436 260.26485691 258.464701 C288.2900671 286.49588362 316.32596727 314.51633499 344.3702239 342.52846186 C375.85145034 373.97365176 407.32433478 405.42715749 438.78507145 436.89284812 C442.13633761 440.24458429 445.48763366 443.59629058 448.8389491 446.94797747 C449.66417136 447.77330212 450.48939362 448.59862676 451.33962261 449.44896124 C463.823247 461.93378286 476.31345624 474.41199145 488.80700101 486.8868851 C503.00628527 501.06498251 517.19692216 515.25166799 531.37589538 529.45007905 C539.3199829 537.40453199 547.27098524 545.35192571 555.23189285 553.28954567 C560.53955959 558.58305458 565.83819382 563.88548836 571.12937593 569.19547451 C574.15048539 572.2268031 577.17552319 575.25392089 580.21154368 578.27032157 C582.96807286 581.00919597 585.71304024 583.75910879 588.44885958 586.51866587 C589.43955496 587.51384729 590.43454876 588.50477068 591.43407967 589.49107761 C592.78141363 590.82177244 594.11215049 592.16921124 595.44179555 593.51758121 C596.18602003 594.26169701 596.93024451 595.00581281 597.69702125 595.77247757 C599.14097585 597.841206 599.14097585 597.841206 599.00132501 599.96397161 C597.72534003 602.74810043 595.77929762 604.48337671 593.57847585 606.591206 C592.75218679 607.39042475 591.92589773 608.1896435 591.0745696 609.013081 C590.1174407 609.91800288 590.1174407 609.91800288 589.14097585 610.841206 C585.69475024 609.3564307 583.46005942 607.40979464 580.81620039 604.76482754 C579.95146115 603.90458288 579.08672191 603.04433823 578.19577845 602.15802555 C577.23883571 601.19595127 576.28198437 600.23378608 575.32521429 599.27154009 C574.30283744 598.25064216 573.28002191 597.23018339 572.25680681 596.21012561 C569.43108881 593.39056427 566.61167709 590.56476831 563.79320442 587.73796696 C560.73163878 584.66954927 557.66428979 581.6069224 554.59765496 578.54357247 C549.21882051 573.16889193 543.84372651 567.79049302 538.471033 562.4096741 C530.48196444 554.40855676 522.4871909 546.41315841 514.49121732 538.41894239 C501.0421849 524.97254056 487.59782076 511.52148026 474.15608968 498.06777995 C460.84262388 484.74248946 447.52710043 471.4192607 434.2088088 458.09879344 C433.38143473 457.27128189 432.55406066 456.44377034 431.70161465 455.59118268 C427.49997304 451.38886443 423.29829449 447.1865831 419.09660171 442.984316 C389.31816727 413.20167815 359.54437476 383.41440371 329.77330007 353.62440913 C300.84693428 324.67968146 271.9184736 295.73705014 242.98716726 266.79726069 C242.09574198 265.90557236 241.20431671 265.01388404 240.28587855 264.09517485 C231.33400615 255.14066547 222.38209107 246.18619875 213.43014472 237.23176331 C195.19318791 218.98973376 176.95651603 200.74741937 158.72001638 182.50493281 C157.46222479 181.24672935 157.46222479 181.24672935 156.17902327 179.96310764 C100.16156824 123.92724409 44.15075605 67.88474067 -11.85902415 11.841206 C-10.28302492 8.53004637 -8.54728109 6.17418062 -5.98402415 3.528706 C-4.96695384 2.45169428 -4.96695384 2.45169428 -3.92933665 1.35292475 C-1.85902415 -0.158794 -1.85902415 -0.158794 0 0 Z " fill="#16E9D5" transform="translate(14.8590241484344,566.1587939970195)"/>
<path d="M0 0 C3.44622562 1.48477531 5.68091643 3.43141137 8.32477546 6.07637846 C9.62188432 7.36674545 9.62188432 7.36674545 10.9451974 8.68318045 C11.90214014 9.64525473 12.85899149 10.60741992 13.81576157 11.56966591 C14.83813841 12.59056385 15.86095394 13.61102261 16.88416904 14.63108039 C19.70988704 17.45064173 22.52929876 20.27643769 25.34777143 23.10323905 C28.40933707 26.17165674 31.47668606 29.2342836 34.54332089 32.29763353 C39.92215534 37.67231408 45.29724934 43.05071298 50.66994286 48.43153191 C58.65901141 56.43264924 66.65378495 64.42804759 74.64975854 72.42226361 C88.09879095 85.86866544 101.54315509 99.31972574 114.98488617 112.77342606 C128.29835197 126.09871654 141.61387542 139.4219453 154.93216705 152.74241257 C155.75954112 153.56992412 156.58691519 154.39743566 157.4393612 155.25002332 C161.64100281 159.45234158 165.84268136 163.6546229 170.04437414 167.85689001 C199.82280858 197.63952786 229.59660109 227.42680229 259.36767578 257.21679688 C288.29404158 286.16152454 317.22250225 315.10415587 346.15380859 344.04394531 C347.04523387 344.93563364 347.93665914 345.82732197 348.85509731 346.74603115 C357.8069697 355.70054054 366.75888478 364.65500725 375.71083113 373.6094427 C393.94778794 391.85147225 412.18445982 410.09378663 430.42095947 428.33627319 C431.67875106 429.59447665 431.67875106 429.59447665 432.96195259 430.87809837 C488.97940761 486.91396191 544.9902198 542.95646533 601 599 C599.42400077 602.31115963 597.68825694 604.66702538 595.125 607.3125 C594.44695313 608.03050781 593.76890625 608.74851562 593.0703125 609.48828125 C591 611 591 611 589.14097585 610.841206 C586.33514227 609.73877225 584.80768571 608.18416973 582.67407387 606.0524227 C581.80907841 605.19545024 580.94408294 604.33847778 580.05287549 603.45553645 C579.09559961 602.49200757 578.13846124 601.52834206 577.18144512 600.56455517 C576.15897632 599.54582062 575.13585183 598.52774381 574.11212978 597.51026866 C571.28330961 594.69486157 568.46397729 591.87011385 565.64602721 589.04383259 C562.58534985 585.97737464 559.51604407 582.91957433 556.4478119 579.86067897 C551.06576688 574.49258397 545.68937532 569.11887758 540.31659889 563.74150658 C532.32733026 555.74542348 524.32956715 547.75787767 516.33011689 539.77198214 C501.21506115 524.68187896 486.11025329 509.58154554 471.00861599 494.47801527 C459.35104736 482.81907543 447.69089288 471.16272758 436.02889442 459.50821877 C434.35552194 457.8358966 432.68215081 456.16357308 431.00878102 454.49124822 C430.17817589 453.66116244 429.34757077 452.83107666 428.49179579 451.97583676 C427.65970265 451.14426377 426.82760952 450.31269078 425.97030145 449.45591861 C424.72012871 448.20653186 424.72012871 448.20653186 423.44469996 446.93190498 C399.99296651 423.49476153 376.54439282 400.05446059 353.10225964 376.60771465 C352.21793091 375.72321397 351.33360218 374.83871328 350.4224756 373.92740955 C345.93998916 369.44403417 341.45753066 364.96063085 336.97508188 360.47721782 C336.08479506 359.58673996 335.19450825 358.69626211 334.27724304 357.77880008 C332.47686672 355.97803667 330.67649202 354.17727165 328.87611894 352.376505 C300.85090875 324.34532238 272.81500858 296.32487101 244.77075195 268.31274414 C213.28952551 236.86755425 181.81664108 205.41404851 150.3559044 173.94835788 C147.00463824 170.59662171 143.6533422 167.24491542 140.30202675 163.89322853 C139.47680449 163.06790389 138.65158223 162.24257924 137.80135324 161.39224476 C125.31772885 148.90742314 112.82751961 136.42921455 100.33397484 123.95432091 C86.13469059 109.77622349 71.94405369 95.58953801 57.76508047 81.39112695 C49.82099295 73.43667402 41.86999061 65.48928029 33.909083 57.55166034 C28.60141626 52.25815143 23.30278203 46.95571764 18.01159993 41.64573149 C14.99049046 38.6144029 11.96545266 35.58728511 8.92943218 32.57088443 C6.17290299 29.83201004 3.42793561 27.08209722 0.69211627 24.32254013 C-0.29857911 23.32735871 -1.29357291 22.33643532 -2.29310382 21.35012839 C-3.64043778 20.01943357 -4.97117464 18.67199476 -6.30081969 17.32362479 C-7.04504418 16.57950899 -7.78926866 15.83539319 -8.5560454 15.06872843 C-10 13 -10 13 -9.86034916 10.87723439 C-8.58436418 8.09310557 -6.63832177 6.3578293 -4.4375 4.25 C-3.61121094 3.45078125 -2.78492188 2.6515625 -1.93359375 1.828125 C-1.29550781 1.22484375 -0.65742187 0.6215625 0 0 Z " fill="#16E9D5" transform="translate(36,543)"/>
<path d="M0 0 C2.80583358 1.10243376 4.33329015 2.65703627 6.46690198 4.7887833 C7.33189744 5.64575576 8.19689291 6.50272822 9.08810036 7.38566955 C10.04537624 8.34919843 11.00251462 9.31286394 11.95953073 10.27665083 C12.98199953 11.29538538 14.00512402 12.31346219 15.02884607 13.33093734 C17.85766624 16.14634443 20.67699856 18.97109215 23.49494865 21.79737341 C26.555626 24.86383136 29.62493178 27.92163167 32.69316395 30.98052703 C38.07520897 36.34862204 43.45160053 41.72232843 48.82437696 47.09969943 C56.81364559 55.09578253 64.8114087 63.08332833 72.81085896 71.06922387 C87.9259147 86.15932704 103.03072256 101.25966046 118.13235986 116.36319074 C129.78992849 128.02213058 141.45008298 139.67847842 153.11208143 151.33298724 C154.78545391 153.0053094 156.45882504 154.67763292 158.13219483 156.34995778 C158.96279996 157.18004356 159.79340509 158.01012935 160.64918007 158.86536924 C161.4812732 159.69694223 162.31336633 160.52851522 163.1706744 161.38528739 C164.00412289 162.21821189 164.83757138 163.05113639 165.69627589 163.90930102 C189.14800934 187.34644447 212.59658303 210.78674542 236.03871622 234.23349135 C237.36520931 235.56024238 237.36520931 235.56024238 238.71850025 236.91379646 C243.20098669 241.39717184 247.68344519 245.88057515 252.16589397 250.36398819 C253.05618079 251.25446604 253.94646761 252.14494389 254.86373281 253.06240592 C256.66410913 254.86316933 258.46448383 256.66393436 260.26485691 258.464701 C288.2900671 286.49588362 316.32596727 314.51633499 344.3702239 342.52846186 C375.85145034 373.97365176 407.32433478 405.42715749 438.78507145 436.89284812 C442.13633761 440.24458429 445.48763366 443.59629058 448.8389491 446.94797747 C449.66417136 447.77330212 450.48939362 448.59862676 451.33962261 449.44896124 C463.823247 461.93378286 476.31345624 474.41199145 488.80700101 486.8868851 C503.00628527 501.06498251 517.19692216 515.25166799 531.37589538 529.45007905 C539.3199829 537.40453199 547.27098524 545.35192571 555.23189285 553.28954567 C560.53955959 558.58305458 565.83819382 563.88548836 571.12937593 569.19547451 C574.15048539 572.2268031 577.17552319 575.25392089 580.21154368 578.27032157 C582.96807286 581.00919597 585.71304024 583.75910879 588.44885958 586.51866587 C589.43955496 587.51384729 590.43454876 588.50477068 591.43407967 589.49107761 C592.78141363 590.82177244 594.11215049 592.16921124 595.44179555 593.51758121 C596.18602003 594.26169701 596.93024451 595.00581281 597.69702125 595.77247757 C599.14097585 597.841206 599.14097585 597.841206 599.00132501 599.96397161 C597.72534003 602.74810043 595.77929762 604.48337671 593.57847585 606.591206 C592.75218679 607.39042475 591.92589773 608.1896435 591.0745696 609.013081 C590.1174407 609.91800288 590.1174407 609.91800288 589.14097585 610.841206 C585.69475024 609.3564307 583.46005942 607.40979464 580.81620039 604.76482754 C579.95146115 603.90458288 579.08672191 603.04433823 578.19577845 602.15802555 C577.23883571 601.19595127 576.28198437 600.23378608 575.32521429 599.27154009 C574.30283744 598.25064216 573.28002191 597.23018339 572.25680681 596.21012561 C569.43108881 593.39056427 566.61167709 590.56476831 563.79320442 587.73796696 C560.73163878 584.66954927 557.66428979 581.6069224 554.59765496 578.54357247 C549.21882051 573.16889193 543.84372651 567.79049302 538.471033 562.4096741 C530.48196444 554.40855676 522.4871909 546.41315841 514.49121732 538.41894239 C501.0421849 524.97254056 487.59782076 511.52148026 474.15608968 498.06777995 C460.84262388 484.74248946 447.52710043 471.4192607 434.2088088 458.09879344 C433.38143473 457.27128189 432.55406066 456.44377034 431.70161465 455.59118268 C427.49997304 451.38886443 423.29829449 447.1865831 419.09660171 442.984316 C389.31816727 413.20167815 359.54437476 383.41440371 329.77330007 353.62440913 C300.84693428 324.67968146 271.9184736 295.73705014 242.98716726 266.79726069 C242.09574198 265.90557236 241.20431671 265.01388404 240.28587855 264.09517485 C231.33400615 255.14066547 222.38209107 246.18619875 213.43014472 237.23176331 C195.19318791 218.98973376 176.95651603 200.74741937 158.72001638 182.50493281 C157.46222479 181.24672935 157.46222479 181.24672935 156.17902327 179.96310764 C100.16156824 123.92724409 44.15075605 67.88474067 -11.85902415 11.841206 C-10.28302492 8.53004637 -8.54728109 6.17418062 -5.98402415 3.528706 C-4.96695384 2.45169428 -4.96695384 2.45169428 -3.92933665 1.35292475 C-1.85902415 -0.158794 -1.85902415 -0.158794 0 0 Z " fill="#16E9D5" transform="translate(82.8590241484344,498.15879399701953)"/>
<path d="M0 0 C0.33 0.66 0.66 1.32 1 2 C1.66 2.33 2.32 2.66 3 3 C2.01 3 1.02 3 0 3 C-0.2475 3.5775 -0.495 4.155 -0.75 4.75 C-2.18299988 7.32939979 -3.78424676 9.06121592 -6 11 C-6.66 11 -7.32 11 -8 11 C-6.63629701 8.00779732 -5.05091917 5.70973471 -2.875 3.25 C-2.33617187 2.63640625 -1.79734375 2.0228125 -1.2421875 1.390625 C-0.62730469 0.70226562 -0.62730469 0.70226562 0 0 Z " fill="#C2F5ED" transform="translate(283,472)"/>
</svg>
