<?xml version="1.0" encoding="UTF-8"?>
<!DOCTYPE svg  PUBLIC '-//W3C//DTD SVG 20010904//EN'  'http://www.w3.org/TR/2001/REC-SVG-20010904/DTD/svg10.dtd'>
<svg width="300pt" height="300pt" version="1.0" viewBox="0 0 300 300" xmlns="http://www.w3.org/2000/svg">
<metadata>Created by potrace 1.10, written by Peter Selinger 2001-2011</metadata>
<g transform="translate(0 300) scale(.05 -.05)">
<path d="m2520 5570-410-410 3060-3060 830 830-1525 1525c-839 839-1530 1525-1535 1525-6 0-195-185-420-410z"/>
<path d="m1861 4911c-152-153-165-172-140-205 16-20 702-710 1526-1534l1497-1497 178 177 178 178-1525 1525c-839 839-1530 1525-1535 1525-6 0-86-76-179-169z"/>
<path d="m1495 4545-114-116 3058-3058 242 238-1526 1526c-839 839-1530 1525-1536 1525-5 0-62-52-124-115z"/>
<path d="m1230 4280-79-81 3058-3058 172 168-1526 1526c-838 839-1530 1525-1536 1525s-46-36-89-80z"/>
<path d="m985 4035-84-86 3058-3058 182 178-1526 1526c-838 839-1530 1525-1536 1525s-48-38-94-85z"/>
<path d="m774 3824-53-55 3058-3058 122 118-1525 1525c-839 839-1531 1526-1537 1526s-35-25-65-56z"/>
<path d="m594 3644-53-55 3058-3058 122 118-1525 1525c-839 839-1531 1526-1537 1526s-35-25-65-56z"/>
<path d="m414 3464-53-55 3057-3057 51 47c28 27 51 58 51 70 0 21-3020 3051-3041 3051-6 0-35-25-65-56z"/>
<path d="m263 3314c-26-32 3018-3088 3055-3065 12 7 22 24 22 37 0 24-3019 3054-3043 3054-6 0-22-12-34-26z"/>
<path d="m143 3194c-36-44 3023-3090 3067-3054 30 24-2979 3080-3033 3080-6 0-22-12-34-26z"/>
<path d="m23 3074c-36-44 3023-3090 3067-3054 30 24-2979 3080-3033 3080-6 0-22-12-34-26z"/>
</g>
</svg>
