<?xml version="1.0" encoding="UTF-8" standalone="no"?>
<!-- Created with Inkscape (http://www.inkscape.org/) -->

<svg
   width="40mm"
   height="46.168655mm"
   viewBox="0 0 40 46.168656"
   version="1.1"
   id="svg1"
   inkscape:version="1.4.2 (f4327f4, 2025-05-13)"
   sodipodi:docname="Talent Token_Dreadnaught.svg"
   xmlns:inkscape="http://www.inkscape.org/namespaces/inkscape"
   xmlns:sodipodi="http://sodipodi.sourceforge.net/DTD/sodipodi-0.dtd"
   xmlns="http://www.w3.org/2000/svg"
   xmlns:svg="http://www.w3.org/2000/svg">
  <sodipodi:namedview
     id="namedview1"
     pagecolor="#ffffff"
     bordercolor="#000000"
     borderopacity="0.25"
     inkscape:showpageshadow="2"
     inkscape:pageopacity="0.0"
     inkscape:pagecheckerboard="0"
     inkscape:deskcolor="#d1d1d1"
     inkscape:document-units="mm"
     inkscape:zoom="2.7773624"
     inkscape:cx="103.69551"
     inkscape:cy="56.70848"
     inkscape:window-width="1920"
     inkscape:window-height="991"
     inkscape:window-x="-9"
     inkscape:window-y="-9"
     inkscape:window-maximized="1"
     inkscape:current-layer="layer2" />
  <defs
     id="defs1">
    <linearGradient
       id="swatch6"
       inkscape:swatch="solid">
      <stop
         style="stop-color:#ff0000;stop-opacity:1;"
         offset="0"
         id="stop6" />
    </linearGradient>
    <linearGradient
       id="swatch5"
       inkscape:swatch="solid">
      <stop
         style="stop-color:#ff0000;stop-opacity:1;"
         offset="0"
         id="stop5" />
    </linearGradient>
    <linearGradient
       id="swatch4"
       inkscape:swatch="solid">
      <stop
         style="stop-color:#696969;stop-opacity:1;"
         offset="0"
         id="stop4" />
    </linearGradient>
    <linearGradient
       id="swatch3"
       inkscape:swatch="solid">
      <stop
         style="stop-color:#000000;stop-opacity:1;"
         offset="0"
         id="stop3" />
    </linearGradient>
    <linearGradient
       id="swatch2"
       inkscape:swatch="solid">
      <stop
         style="stop-color:#ff0000;stop-opacity:1;"
         offset="0"
         id="stop2" />
    </linearGradient>
  </defs>
  <g
     inkscape:label="Layer 1"
     inkscape:groupmode="layer"
     id="layer1"
     transform="translate(-9.8430554,-2.3308907)">
    <path
       style="fill:#000000;stroke-width:0.264999"
       d="M 29.84462,2.3308907 29.519399,2.5186572 9.8430554,13.878799 v 1.029419 h 1.9036596 l 0.09684,0.129479 17.994906,-10.3893633 z"
       id="path6-63" />
    <path
       style="fill:#000000;stroke-width:0.264999"
       d="M 29.845055,2.3308907 30.170276,2.5186572 49.84662,13.878799 v 1.029419 H 47.94296 L 47.84612,15.037697 29.851214,4.6483337 Z"
       id="path6-6-6" />
    <path
       style="fill:#000000;stroke-width:0.264999"
       d="M 9.8430554,37.491417 V 37.115884 14.3956 l 0.8915036,-0.514709 0.95183,1.648617 0.160552,0.01913 v 20.778727 z"
       id="path6-8" />
    <path
       style="fill:#000000;stroke-width:0.265014"
       d="M 49.845055,37.106161 V 36.730607 14.00903 l -0.891555,-0.514738 -0.951884,1.648711 -0.160561,0.01913 v 20.779909 z"
       id="path6-8-1" />
    <path
       style="fill:#000000;stroke-width:0.264999"
       d="M 29.844619,49.038424 29.519398,48.850658 9.8430554,37.490516 v -1.029419 h 1.9036586 l 0.09684,-0.129479 17.994906,10.389363 z"
       id="path6-2" />
    <path
       style="fill:#000000;stroke-width:0.264999"
       d="M 29.845055,49.038697 30.170276,48.850931 49.846618,37.490789 V 36.46137 H 47.94296 L 47.84612,36.331891 29.851214,46.721254 Z"
       id="path6-2-2" />
    <rect
       style="fill:#000000;stroke-width:0.296042"
       id="rect6"
       width="2.0039999"
       height="2.0272074"
       x="47.839054"
       y="34.954475" />
    <rect
       style="fill:#000000;stroke-width:0.296042"
       id="rect6-1"
       width="2.0039999"
       height="2.0272074"
       x="9.8430538"
       y="35.403809" />
    <rect
       style="fill:#000000;stroke-width:0.296042"
       id="rect6-9"
       width="2.0039999"
       height="2.0272074"
       x="47.839054"
       y="14.042717" />
    <rect
       style="fill:#000000;stroke-width:0.296042"
       id="rect6-9-2"
       width="2.0039999"
       height="2.0272076"
       x="9.8430557"
       y="13.972558" />
  </g>
  <g
     inkscape:groupmode="layer"
     id="layer2"
     inkscape:label="Layer 2">
    <path
       style="fill:#000000;fill-opacity:1;stroke:#000000;stroke-width:0.438918"
       d="m 17.514461,33.368361 5.907393,-1.58288 1.030955,-3.847568 -4.564753,-2.635459 -0.280172,-0.161757 -3.018088,0.808694 H 4.9310713 v 3.996253 z"
       id="path2" />
    <path
       style="fill:#000000;fill-opacity:1;stroke:#000000;stroke-width:0.417753"
       d="m 15.19236,43.415822 2.073723,-8.52111 7.475178,-2.025187 4.846947,-19.65435 L 23.49032,9.5420488 24.907364,4.5947763 C 46.393731,14.988935 33.882583,9.2671578 38.846513,12.151118 L 39.04027,34.417937 20.417669,45.483158 Z"
       id="path1"
       sodipodi:nodetypes="cccccccccc" />
    <path
       style="fill:#000000;fill-opacity:1;stroke:#000000;stroke-width:0;stroke-dasharray:none;stroke-opacity:1"
       d="m 16.242766,24.907857 3.724945,-1.006649 2.902976,1.771689 2.530945,-0.678163 1.105098,-4.124282 0.003,-0.01169 -5.064647,-2.924075 -3.03155,0.812299 -0.02172,0.0058 H 6.5179359 l -7.606e-4,4.388857 7.6872017,1.774886"
       id="path6"
       sodipodi:nodetypes="cccccccccccc" />
    <path
       style="fill:#000000;fill-opacity:1;stroke:#000000;stroke-width:0.002;stroke-dasharray:none;stroke-opacity:1"
       d="M 25.286203,32.670358 28.520718,20.598985"
       id="path7" />
    <path
       style="fill:#000000;fill-opacity:1;stroke:#000000;stroke-width:0;stroke-dasharray:none;stroke-opacity:1"
       d="m 18.007263,17.927135 3.724945,-1.00665 2.902976,1.771689 2.530946,-0.678165 1.105096,-4.124279 0.003,-0.01168 -5.064649,-2.924077 -3.03155,0.812299 -0.02172,0.0058 H 8.282438 l -7.597e-4,4.388858 7.6872017,1.774886"
       id="path6-3"
       sodipodi:nodetypes="cccccccccccc" />
  </g>
</svg>
