<?xml version="1.0" encoding="UTF-8" standalone="no"?>
<!-- Created with Inkscape (http://www.inkscape.org/) -->

<svg
   width="40mm"
   height="46.168655mm"
   viewBox="0 0 40 46.168656"
   version="1.1"
   id="svg1"
   inkscape:version="1.4.2 (f4327f4, 2025-05-13)"
   sodipodi:docname="Talent Token_Malefactor.svg"
   xmlns:inkscape="http://www.inkscape.org/namespaces/inkscape"
   xmlns:sodipodi="http://sodipodi.sourceforge.net/DTD/sodipodi-0.dtd"
   xmlns="http://www.w3.org/2000/svg"
   xmlns:svg="http://www.w3.org/2000/svg">
  <sodipodi:namedview
     id="namedview1"
     pagecolor="#ffffff"
     bordercolor="#000000"
     borderopacity="0.25"
     inkscape:showpageshadow="2"
     inkscape:pageopacity="0.0"
     inkscape:pagecheckerboard="0"
     inkscape:deskcolor="#d1d1d1"
     inkscape:document-units="mm"
     inkscape:zoom="3.3168446"
     inkscape:cx="7.2357927"
     inkscape:cy="134.3144"
     inkscape:window-width="1920"
     inkscape:window-height="991"
     inkscape:window-x="-9"
     inkscape:window-y="-9"
     inkscape:window-maximized="1"
     inkscape:current-layer="layer2" />
  <defs
     id="defs1" />
  <g
     inkscape:label="Layer 1"
     inkscape:groupmode="layer"
     id="layer1"
     transform="translate(-9.8430554,-2.3308907)">
    <path
       style="fill:#000000;stroke-width:0.264999"
       d="M 29.84462,2.3308907 29.519399,2.5186572 9.8430554,13.878799 v 1.029419 h 1.9036596 l 0.09684,0.129479 17.994906,-10.3893633 z"
       id="path6-63" />
    <path
       style="fill:#000000;stroke-width:0.264999"
       d="M 29.845055,2.3308907 30.170276,2.5186572 49.84662,13.878799 v 1.029419 H 47.94296 L 47.84612,15.037697 29.851214,4.6483337 Z"
       id="path6-6-6" />
    <path
       style="fill:#000000;stroke-width:0.264999"
       d="M 9.8430554,37.491417 V 37.115884 14.3956 l 0.8915036,-0.514709 0.95183,1.648617 0.160552,0.01913 v 20.778727 z"
       id="path6-8" />
    <path
       style="fill:#000000;stroke-width:0.265014"
       d="M 49.845055,37.106161 V 36.730607 14.00903 l -0.891555,-0.514738 -0.951884,1.648711 -0.160561,0.01913 v 20.779909 z"
       id="path6-8-1" />
    <path
       style="fill:#000000;stroke-width:0.264999"
       d="M 29.844619,49.038424 29.519398,48.850658 9.8430554,37.490516 v -1.029419 h 1.9036586 l 0.09684,-0.129479 17.994906,10.389363 z"
       id="path6-2" />
    <path
       style="fill:#000000;stroke-width:0.264999"
       d="M 29.845055,49.038697 30.170276,48.850931 49.846618,37.490789 V 36.46137 H 47.94296 L 47.84612,36.331891 29.851214,46.721254 Z"
       id="path6-2-2" />
    <rect
       style="fill:#000000;stroke-width:0.296042"
       id="rect6"
       width="2.0039999"
       height="2.0272074"
       x="47.839054"
       y="34.954475" />
    <rect
       style="fill:#000000;stroke-width:0.296042"
       id="rect6-1"
       width="2.0039999"
       height="2.0272074"
       x="9.8430538"
       y="35.403809" />
    <rect
       style="fill:#000000;stroke-width:0.296042"
       id="rect6-9"
       width="2.0039999"
       height="2.0272074"
       x="47.839054"
       y="14.042717" />
    <rect
       style="fill:#000000;stroke-width:0.296042"
       id="rect6-9-2"
       width="2.0039999"
       height="2.0272076"
       x="9.8430557"
       y="13.972558" />
  </g>
  <g
     inkscape:groupmode="layer"
     id="layer2"
     inkscape:label="Layer 2">
    <path
       sodipodi:type="star"
       style="fill:#000000;stroke-width:0.264999"
       id="path2-3"
       inkscape:flatsided="true"
       sodipodi:sides="6"
       sodipodi:cx="19.574945"
       sodipodi:cy="25.503958"
       sodipodi:r1="1.7169003"
       sodipodi:r2="1.4868793"
       sodipodi:arg1="0.53643546"
       sodipodi:arg2="1.0600342"
       inkscape:rounded="-3.469447e-18"
       inkscape:randomized="2.7755576e-17"
       d="m 21.050683,26.381423 -1.497776,0.839294 -1.475738,-0.877466 0.02204,-1.716759 1.497776,-0.839293 1.475738,0.877465 z"
       transform="matrix(1.1506138,-0.01334758,0.01334758,1.1506138,-18.845107,-5.4022411)" />
    <rect
       style="fill:#000000;stroke-width:0.338183"
       id="rect5-0-8-2"
       width="0.57071978"
       height="8.5607967"
       x="-21.034622"
       y="15.593008"
       transform="scale(-1,1)" />
    <rect
       style="fill:#000000;stroke-width:0.338183"
       id="rect5-0-8-2-1"
       width="0.57071978"
       height="8.5607967"
       x="-31.579762"
       y="-5.5259814"
       transform="matrix(-0.5,-0.8660254,-0.8660254,0.5,0,0)" />
    <rect
       style="fill:#000000;stroke-width:0.338183"
       id="rect5-0-8-2-1-9"
       width="0.57071978"
       height="8.5607967"
       x="-18.856728"
       y="15.555016"
       transform="rotate(-60)" />
    <rect
       style="fill:#000000;stroke-width:0.338183"
       id="rect5-0-8-2-1-9-4"
       width="0.57071978"
       height="8.5607967"
       x="-21.020849"
       y="-32.842655"
       transform="scale(-1)" />
    <rect
       style="fill:#000000;stroke-width:0.338183"
       id="rect5-0-8-2-6"
       width="0.57071978"
       height="8.5607967"
       x="2.9890676"
       y="17.472507"
       transform="matrix(-0.5,0.8660254,0.8660254,0.5,0,0)" />
    <rect
       style="fill:#000000;stroke-width:0.338183"
       id="rect5-0-8-2-3"
       width="0.57071978"
       height="8.5607967"
       x="-31.516172"
       y="-14.656011"
       transform="matrix(-0.5,-0.8660254,-0.8660254,0.5,0,0)" />
    <rect
       style="fill:#000000;stroke-width:0.338183"
       id="rect5-0-8-2-6-9"
       width="0.57071978"
       height="8.5607967"
       x="-28.448122"
       y="11.425289"
       transform="scale(-1,1)" />
    <rect
       style="fill:#000000;stroke-width:0.338185"
       id="rect5-0-8-2-5"
       width="0.57071978"
       height="8.5607967"
       x="-13.049728"
       y="-37.187492"
       transform="scale(-1)" />
    <rect
       style="fill:#000000;stroke-width:0.235779"
       id="rect5-0-8-2-5-1"
       width="0.57071978"
       height="4.1611586"
       x="-38.732933"
       y="-11.45358"
       transform="rotate(-120)" />
    <rect
       style="fill:#000000;stroke-width:0.169986"
       id="rect5-0-8-2-5-1-4"
       width="0.41146216"
       height="3"
       x="19.416838"
       y="-40.063362"
       transform="rotate(120)" />
    <rect
       style="fill:#000000;stroke-width:0.169986"
       id="rect5-0-8-2-5-1-4-30"
       width="0.41146216"
       height="3"
       x="2.9300601"
       y="-34.187943"
       transform="rotate(120)" />
    <rect
       style="fill:#000000;stroke-width:0.169986"
       id="rect5-0-8-2-5-1-4-5"
       width="0.41146216"
       height="3"
       x="10.415585"
       y="-28.28821"
       transform="rotate(120)" />
    <rect
       style="fill:#000000;stroke-width:0.169986"
       id="rect5-0-8-2-5-1-4-5-2"
       width="0.41146216"
       height="3"
       x="-4.5964799"
       y="-34.870243"
       transform="rotate(120)" />
    <rect
       style="fill:#000000;stroke-width:0.169986"
       id="rect5-0-8-2-5-1-4-5-22"
       width="0.41146216"
       height="3"
       x="-4.6100969"
       y="-28.15202"
       transform="rotate(120)" />
    <rect
       style="fill:#000000;stroke-width:0.169986"
       id="rect5-0-8-2-5-1-4-3"
       width="0.41146216"
       height="3"
       x="-40.581051"
       y="2.4450703"
       transform="rotate(-120)" />
    <rect
       style="fill:#000000;stroke-width:0.169986"
       id="rect5-0-8-2-5-1-4-3-4"
       width="0.41146216"
       height="3"
       x="-39.082531"
       y="14.219606"
       transform="rotate(-120)" />
    <rect
       style="fill:#000000;stroke-width:0.169986"
       id="rect5-0-8-2-5-1-4-3-4-05"
       width="0.41146216"
       height="3"
       x="-18.852386"
       y="-5.4855976"
       transform="rotate(-120)" />
    <rect
       style="fill:#000000;stroke-width:0.169986"
       id="rect5-0-8-2-5-1-4-3-4-0"
       width="0.41146216"
       height="3"
       x="35.794949"
       y="19.568922" />
    <rect
       style="fill:#000000;stroke-width:0.169986"
       id="rect5-0-8-2-5-1-4-3-4-0-2"
       width="0.41146216"
       height="3"
       x="31.49608"
       y="26.69487" />
    <rect
       style="fill:#000000;stroke-width:0.169986"
       id="rect5-0-8-2-5-1-4-3-4-0-2-7"
       width="0.41146216"
       height="3"
       x="24.805674"
       y="29.089979" />
    <rect
       style="fill:#000000;stroke-width:0.169986"
       id="rect5-0-8-2-5-1-4-3-4-0-2-9"
       width="0.41146216"
       height="3"
       x="3.8661554"
       y="18.902723" />
    <rect
       style="fill:#000000;stroke-width:0.169986"
       id="rect5-0-8-2-5-1-4-3-4-0-2-3"
       width="0.41146216"
       height="3"
       x="12.605618"
       y="12.850473" />
    <rect
       style="fill:#000000;stroke-width:0.169986"
       id="rect5-0-8-2-5-1-4-3-7"
       width="0.41146216"
       height="3"
       x="-40.57959"
       y="-4.1565776"
       transform="rotate(-120)" />
    <rect
       style="fill:#000000;stroke-width:0.338183"
       id="rect5-0-8-2-3-9"
       width="0.57071978"
       height="8.5607967"
       x="-3.3404379"
       y="34.398933"
       transform="rotate(-60)" />
    <path
       sodipodi:type="star"
       style="fill:#000000;stroke-width:0.264999"
       id="path2-8-6"
       inkscape:flatsided="true"
       sodipodi:sides="6"
       sodipodi:cx="19.574945"
       sodipodi:cy="25.503958"
       sodipodi:r1="1.7169003"
       sodipodi:r2="1.4868793"
       sodipodi:arg1="0.53643546"
       sodipodi:arg2="1.0600342"
       inkscape:rounded="-3.469447e-18"
       inkscape:randomized="2.7755576e-17"
       d="m 21.050683,26.381423 -1.497776,0.839294 -1.475738,-0.877466 0.02204,-1.716759 1.497776,-0.839293 1.475738,0.877465 z"
       transform="matrix(-1.1506138,-0.01334758,-0.01334758,1.1506138,58.716384,-4.8407471)" />
    <path
       sodipodi:type="star"
       style="fill:#000000;stroke-width:0.264999"
       id="path2-8-0"
       inkscape:flatsided="true"
       sodipodi:sides="6"
       sodipodi:cx="19.574945"
       sodipodi:cy="25.503958"
       sodipodi:r1="1.7169003"
       sodipodi:r2="1.4868793"
       sodipodi:arg1="0.53643546"
       sodipodi:arg2="1.0600342"
       inkscape:rounded="-3.469447e-18"
       inkscape:randomized="2.7755576e-17"
       d="m 21.050683,26.381423 -1.497776,0.839294 -1.475738,-0.877466 0.02204,-1.716759 1.497776,-0.839293 1.475738,0.877465 z"
       transform="matrix(1.1506138,-0.01334758,0.01334758,1.1506138,-10.00197,-17.889289)" />
    <circle
       style="fill:#ffffff;stroke-width:0.30248"
       id="path5"
       cx="4.0201235"
       cy="23.616707"
       r="1.1414396" />
    <path
       sodipodi:type="star"
       style="fill:#000000;stroke-width:0.264999"
       id="path2-3-0"
       inkscape:flatsided="true"
       sodipodi:sides="6"
       sodipodi:cx="19.574945"
       sodipodi:cy="25.503958"
       sodipodi:r1="1.7169003"
       sodipodi:r2="1.4868793"
       sodipodi:arg1="0.53643546"
       sodipodi:arg2="1.0600342"
       inkscape:rounded="-3.469447e-18"
       inkscape:randomized="2.7755576e-17"
       d="m 21.050683,26.381423 -1.497776,0.839294 -1.475738,-0.877466 0.02204,-1.716759 1.497776,-0.839293 1.475738,0.877465 z"
       transform="matrix(1.1506138,-0.01334758,0.01334758,1.1506138,-10.218046,-0.33817265)" />
    <circle
       style="fill:#ffffff;stroke-width:0.30248"
       id="path5-8"
       cx="12.647183"
       cy="28.680777"
       r="1.1414396" />
    <path
       sodipodi:type="star"
       style="fill:#000000;stroke-width:0.264999"
       id="path2-3-6"
       inkscape:flatsided="true"
       sodipodi:sides="6"
       sodipodi:cx="19.574945"
       sodipodi:cy="25.503958"
       sodipodi:r1="1.7169003"
       sodipodi:r2="1.4868793"
       sodipodi:arg1="0.53643546"
       sodipodi:arg2="1.0600342"
       inkscape:rounded="-3.469447e-18"
       inkscape:randomized="2.7755576e-17"
       d="m 21.050683,26.381423 -1.497776,0.839294 -1.475738,-0.877466 0.02204,-1.716759 1.497776,-0.839293 1.475738,0.877465 z"
       transform="matrix(1.1506138,-0.01334758,0.01334758,1.1506138,-2.1080199,-4.9475711)" />
    <circle
       style="fill:#ffffff;stroke-width:0.30248"
       id="path5-7"
       cx="20.75721"
       cy="24.071377"
       r="1.1414396" />
    <path
       sodipodi:type="star"
       style="fill:#000000;stroke-width:0.264999"
       id="path2-3-9"
       inkscape:flatsided="true"
       sodipodi:sides="6"
       sodipodi:cx="19.574945"
       sodipodi:cy="25.503958"
       sodipodi:r1="1.7169003"
       sodipodi:r2="1.4868793"
       sodipodi:arg1="0.53643546"
       sodipodi:arg2="1.0600342"
       inkscape:rounded="-3.469447e-18"
       inkscape:randomized="2.7755576e-17"
       d="m 21.050683,26.381423 -1.497776,0.839294 -1.475738,-0.877466 0.02204,-1.716759 1.497776,-0.839293 1.475738,0.877465 z"
       transform="matrix(1.1506138,-0.01334758,0.01334758,1.1506138,5.2917859,-17.899633)" />
    <circle
       style="fill:#ffffff;stroke-width:0.30248"
       id="path5-3"
       cx="28.157019"
       cy="11.119315"
       r="1.1414396" />
    <path
       sodipodi:type="star"
       style="fill:#000000;stroke-width:0.264999"
       id="path2-3-6-2"
       inkscape:flatsided="true"
       sodipodi:sides="6"
       sodipodi:cx="19.574945"
       sodipodi:cy="25.503958"
       sodipodi:r1="1.7169003"
       sodipodi:r2="1.4868793"
       sodipodi:arg1="0.53643546"
       sodipodi:arg2="1.0600342"
       inkscape:rounded="-3.469447e-18"
       inkscape:randomized="2.7755576e-17"
       d="m 21.050683,26.381423 -1.497776,0.839294 -1.475738,-0.877466 0.02204,-1.716759 1.497776,-0.839293 1.475738,0.877465 z"
       transform="matrix(1.1506138,-0.01334758,0.01334758,1.1506138,-2.1309172,5.536678)" />
    <circle
       style="fill:#ffffff;stroke-width:0.30248"
       id="path5-7-5"
       cx="20.734314"
       cy="34.555622"
       r="1.1414396" />
    <circle
       style="fill:#000000;stroke-width:0.218623"
       id="path5-7-5-7"
       cx="25.004416"
       cy="32.108006"
       r="0.82499999" />
    <rect
       style="fill:#000000;stroke-width:0.169986"
       id="rect5-0-8-2-5-1-4-3-1"
       width="0.41146216"
       height="3"
       x="-16.370539"
       y="7.4063487"
       transform="rotate(-120)" />
    <circle
       style="fill:#000000;stroke-width:0.218623"
       id="path5-7-5-7-2"
       cx="17.280361"
       cy="8.7450552"
       r="0.82499999" />
    <rect
       style="fill:#000000;stroke-width:0.169986"
       id="rect5-0-8-2-5-1-4-3-8"
       width="0.41146216"
       height="3"
       x="-25.278639"
       y="-17.823311"
       transform="scale(-1)" />
    <circle
       style="fill:#000000;stroke-width:0.218623"
       id="path5-7-5-7-57"
       cx="0.12255646"
       cy="28.907135"
       r="0.82499999"
       transform="rotate(-60)" />
    <rect
       style="fill:#000000;stroke-width:0.169986"
       id="rect5-0-8-2-5-1-4-3-8-4"
       width="0.41146216"
       height="3"
       x="-16.713831"
       y="-21.446463"
       transform="scale(-1)" />
    <circle
       style="fill:#000000;stroke-width:0.218623"
       id="path5-7-5-7-57-1"
       cx="-7.2975898"
       cy="23.301371"
       r="0.82499999"
       transform="rotate(-60)" />
    <circle
       style="fill:#000000;stroke-width:0.218623"
       id="path5-7-5-7-8"
       cx="25.014894"
       cy="28.587643"
       r="0.82499999" />
    <circle
       style="fill:#000000;stroke-width:0.218623"
       id="path5-7-5-7-4"
       cx="25.066954"
       cy="18.102686"
       r="0.82499999" />
    <rect
       style="fill:#000000;stroke-width:0.169986"
       id="rect5-0-8-2-5-1-4-30-4"
       width="0.41146216"
       height="3"
       x="6.9153409"
       y="-40.673939"
       transform="rotate(120)" />
    <circle
       style="fill:#000000;stroke-width:0.218623"
       id="path5-7-5-7-4-6"
       cx="28.691351"
       cy="24.81698"
       r="0.82499999" />
    <circle
       style="fill:#000000;stroke-width:0.218623"
       id="path5-7-5-7-0"
       cx="31.696642"
       cy="26.489584"
       r="0.82499999" />
    <rect
       style="fill:#000000;stroke-width:0.169986"
       id="rect5-0-8-2-5-1-4-3-4-09"
       width="0.41146216"
       height="3"
       x="-31.353821"
       y="-8.1786528"
       transform="rotate(-120)" />
    <circle
       style="fill:#000000;stroke-width:0.218623"
       id="path5-7-5-7-0-7"
       cx="8.434824"
       cy="30.995455"
       r="0.82499999" />
    <circle
       style="fill:#000000;stroke-width:0.218623"
       id="path5-7-5-7-56"
       cx="31.78125"
       cy="30.19375"
       r="0.82499999" />
    <circle
       style="fill:#000000;stroke-width:0.218623"
       id="path5-7-5-7-9"
       cx="36.014584"
       cy="19.345833"
       r="0.82499999" />
    <circle
       style="fill:#000000;stroke-width:0.218623"
       id="path5-7-5-7-7"
       cx="32.575001"
       cy="13.525001"
       r="0.82499999" />
    <circle
       style="fill:#000000;stroke-width:0.218623"
       id="path5-7-5-7-83"
       cx="23.84375"
       cy="8.4979172"
       r="0.82499999" />
    <circle
       style="fill:#000000;stroke-width:0.218623"
       id="path5-7-5-7-6"
       cx="12.73125"
       cy="15.906251"
       r="0.82499999" />
    <circle
       style="fill:#000000;stroke-width:0.218623"
       id="path5-7-5-7-40"
       cx="4.1128106"
       cy="19.081251"
       r="0.82499999" />
    <circle
       style="fill:#000000;stroke-width:0.218623"
       id="path5-7-5-7-1"
       cx="7.1642418"
       cy="17.398384"
       r="0.82499999" />
    <circle
       style="fill:#000000;stroke-width:0.218623"
       id="path5-7-5-7-00"
       cx="16.435415"
       cy="21.727083"
       r="0.82499999" />
    <rect
       style="fill:#000000;stroke-width:0.169986"
       id="rect5-0-8-2-5-1-4-5-0"
       width="0.41146216"
       height="3"
       x="22.431931"
       y="-22.762684"
       transform="rotate(120)" />
    <circle
       style="fill:#000000;stroke-width:0.218623"
       id="path5-7-5-7-00-1"
       cx="5.6419959"
       cy="29.370779"
       r="0.82499999" />
    <circle
       style="fill:#000000;stroke-width:0.218623"
       id="path5-7-5-7-5"
       cx="25.036411"
       cy="37.108967"
       r="0.82499999" />
    <circle
       style="fill:#000000;stroke-width:0.218623"
       id="path5-7-5-7-5-4"
       cx="16.593012"
       cy="37.044716"
       r="0.82499999" />
    <ellipse
       style="fill:#000000;stroke-width:0.30248"
       id="path6"
       cx="12.635937"
       cy="28.254677"
       rx="0.45526084"
       ry="0.27315649" />
    <rect
       style="fill:#000000;stroke-width:0.0605553"
       id="rect5-0-8-2-1-9-6"
       width="0.10120686"
       height="1.5478412"
       x="-19.182146"
       y="24.951391"
       transform="matrix(0.514622,-0.85741717,0.87422605,0.48551912,0,0)" />
    <rect
       style="fill:#000000;stroke-width:0.0605553"
       id="rect5-0-8-2-1-9-6-5"
       width="0.10120686"
       height="1.5478412"
       x="-31.463999"
       y="3.2491317"
       transform="matrix(-0.514622,-0.85741717,-0.87422605,0.48551912,0,0)" />
    <ellipse
       style="fill:#000000;stroke-width:0.30248"
       id="path6-6"
       cx="20.766251"
       cy="23.628313"
       rx="0.45526084"
       ry="0.27315649" />
    <rect
       style="fill:#000000;stroke-width:0.0605553"
       id="rect5-0-8-2-1-9-6-2"
       width="0.10120686"
       height="1.5478412"
       x="-11.18572"
       y="29.544224"
       transform="matrix(0.514622,-0.85741717,0.87422605,0.48551912,0,0)" />
    <rect
       style="fill:#000000;stroke-width:0.0605553"
       id="rect5-0-8-2-1-9-6-5-1"
       width="0.10120686"
       height="1.5478412"
       x="-31.36688"
       y="-6.1080527"
       transform="matrix(-0.514622,-0.85741717,-0.87422605,0.48551912,0,0)" />
  </g>
</svg>
