<?xml version="1.0" encoding="UTF-8" standalone="no"?>
<!-- Created with Inkscape (http://www.inkscape.org/) -->

<svg
   width="40mm"
   height="46.168655mm"
   viewBox="0 0 40 46.168656"
   version="1.1"
   id="svg1"
   inkscape:version="1.4.2 (f4327f4, 2025-05-13)"
   sodipodi:docname="Talent Token_Giant_Killer.svg"
   xmlns:inkscape="http://www.inkscape.org/namespaces/inkscape"
   xmlns:sodipodi="http://sodipodi.sourceforge.net/DTD/sodipodi-0.dtd"
   xmlns="http://www.w3.org/2000/svg"
   xmlns:svg="http://www.w3.org/2000/svg">
  <sodipodi:namedview
     id="namedview1"
     pagecolor="#ffffff"
     bordercolor="#000000"
     borderopacity="0.25"
     inkscape:showpageshadow="2"
     inkscape:pageopacity="0.0"
     inkscape:pagecheckerboard="0"
     inkscape:deskcolor="#d1d1d1"
     inkscape:document-units="mm"
     inkscape:zoom="4"
     inkscape:cx="119"
     inkscape:cy="118.375"
     inkscape:window-width="1920"
     inkscape:window-height="991"
     inkscape:window-x="-9"
     inkscape:window-y="-9"
     inkscape:window-maximized="1"
     inkscape:current-layer="layer1" />
  <defs
     id="defs1" />
  <g
     inkscape:label="Layer 1"
     inkscape:groupmode="layer"
     id="layer1"
     transform="translate(-9.8430554,-2.3308907)">
    <path
       style="fill:#000000;stroke-width:0.264999"
       d="M 29.84462,2.3308907 29.519399,2.5186572 9.8430554,13.878799 v 1.029419 h 1.9036596 l 0.09684,0.129479 17.994906,-10.3893633 z"
       id="path6" />
    <path
       style="fill:#000000;stroke-width:0.264999"
       d="M 29.845055,2.3308907 30.170276,2.5186572 49.84662,13.878799 v 1.029419 H 47.94296 L 47.84612,15.037697 29.851214,4.6483337 Z"
       id="path6-6" />
    <path
       style="fill:#000000;stroke-width:0.264999"
       d="M 9.8430554,37.491417 V 37.115884 14.3956 l 0.8915036,-0.514709 0.95183,1.648617 0.160552,0.01913 v 20.778727 z"
       id="path6-8" />
    <path
       style="fill:#000000;stroke-width:0.265014"
       d="M 49.845055,37.106161 V 36.730607 14.00903 l -0.891555,-0.514738 -0.951884,1.648711 -0.160561,0.01913 v 20.779909 z"
       id="path6-8-1" />
    <path
       style="fill:#000000;stroke-width:0.264999"
       d="M 29.844619,49.038424 29.519398,48.850658 9.8430554,37.490516 v -1.029419 h 1.9036586 l 0.09684,-0.129479 17.994906,10.389363 z"
       id="path6-2" />
    <path
       style="fill:#000000;stroke-width:0.264999"
       d="M 29.845055,49.038697 30.170276,48.850931 49.846618,37.490789 V 36.46137 H 47.94296 L 47.84612,36.331891 29.851214,46.721254 Z"
       id="path6-2-2" />
    <rect
       style="fill:#000000;stroke-width:0.296042"
       id="rect6"
       width="2.0039999"
       height="2.0272074"
       x="47.839054"
       y="34.954475" />
    <rect
       style="fill:#000000;stroke-width:0.296042"
       id="rect6-1"
       width="2.0039999"
       height="2.0272074"
       x="9.8430538"
       y="35.403809" />
    <rect
       style="fill:#000000;stroke-width:0.296042"
       id="rect6-9"
       width="2.0039999"
       height="2.0272074"
       x="47.839054"
       y="14.042716" />
    <rect
       style="fill:#000000;stroke-width:0.296042"
       id="rect6-9-2"
       width="2.0039999"
       height="2.0272076"
       x="9.8430557"
       y="13.972557" />
  </g>
  <g
     inkscape:groupmode="layer"
     id="layer2"
     inkscape:label="Layer 2">
    <path
       style="fill:#000000;stroke-width:0.324727"
       d="M 12.942784,37.143402 30.966085,19.120098 27.849066,16.003077 24.890583,18.961561 H 20.696019 L 7.4740269,32.183553 12.67797,37.363432 Z"
       id="path1" />
    <path
       style="fill:#000000;stroke-width:0.324727"
       d="M 13.667623,32.757765 7.0706381,8.137476 l 4.2579279,-1.14091 1.082879,4.041364 3.632599,2.097282 0.863952,17.734172 -3.121053,2.211337 z"
       id="path1-3"
       sodipodi:nodetypes="cccccccc" />
    <path
       style="fill:#000000;stroke-width:0.264999"
       d="m 21.795052,14.783594 5.9617,-1.597433 5.112298,2.951587 4.46664,-4.46664 L 20.07526,1.1244792 14.750521,4.1010416 13.787728,4.6569103 13.389825,4.8866398 15.954099,6.3671243 V 11.48457 l 5.761543,3.326429 z"
       id="path2" />
    <path
       style="fill:#000000;stroke-width:0.343932"
       d="m 18.61549,40.401348 1.295324,-2.243571 1.243589,2.153963 0.03856,0.06679 z"
       id="path4" />
    <path
       style="fill:#000000;stroke-width:0.343932"
       d="m 26.556695,26.452945 1.295324,-2.243571 1.243589,2.153963 0.03856,0.06679 z"
       id="path4-1" />
    <path
       style="fill:#000000;stroke-width:0.690716"
       d="m 19.824817,38.912962 8.071919,-14.150175 0.591897,0.582567 -8.128719,14.079357 z"
       id="path5" />
  </g>
</svg>
