<?xml version="1.0" encoding="UTF-8" standalone="no"?>
<!-- Created with Inkscape (http://www.inkscape.org/) -->

<svg
   width="40mm"
   height="46.168655mm"
   viewBox="0 0 40 46.168656"
   version="1.1"
   id="svg1"
   inkscape:version="1.4.2 (f4327f4, 2025-05-13)"
   sodipodi:docname="Talent Token_Architect.svg"
   xmlns:inkscape="http://www.inkscape.org/namespaces/inkscape"
   xmlns:sodipodi="http://sodipodi.sourceforge.net/DTD/sodipodi-0.dtd"
   xmlns="http://www.w3.org/2000/svg"
   xmlns:svg="http://www.w3.org/2000/svg">
  <sodipodi:namedview
     id="namedview1"
     pagecolor="#ffffff"
     bordercolor="#000000"
     borderopacity="0.25"
     inkscape:showpageshadow="2"
     inkscape:pageopacity="0.0"
     inkscape:pagecheckerboard="0"
     inkscape:deskcolor="#d1d1d1"
     inkscape:document-units="mm"
     inkscape:zoom="2.8284271"
     inkscape:cx="15.556349"
     inkscape:cy="58.866639"
     inkscape:window-width="1920"
     inkscape:window-height="991"
     inkscape:window-x="-9"
     inkscape:window-y="-9"
     inkscape:window-maximized="1"
     inkscape:current-layer="layer2" />
  <defs
     id="defs1" />
  <g
     inkscape:label="Layer 1"
     inkscape:groupmode="layer"
     id="layer1"
     transform="translate(-9.8430554,-2.3308907)">
    <path
       sodipodi:type="star"
       style="fill:#000000;stroke-width:0.264999"
       id="path3"
       inkscape:flatsided="true"
       sodipodi:sides="6"
       sodipodi:cx="18.134819"
       sodipodi:cy="20.647884"
       sodipodi:r1="21.123329"
       sodipodi:r2="5.4706717"
       sodipodi:arg1="1.5707963"
       sodipodi:arg2="2.0943951"
       inkscape:rounded="-8.6736174e-17"
       inkscape:randomized="2.7755576e-17"
       d="M 18.13482,41.771214 -0.15852035,31.209549 -0.15852092,10.08622 18.134818,-0.47544479 36.428158,10.086219 l 10e-7,21.123329 z"
       transform="matrix(1.0928357,-7.9391297e-4,7.9391297e-4,1.0928357,10.008285,2.8648712)" />
    <path
       sodipodi:type="star"
       style="fill:#ffffff;stroke-width:0.264999"
       id="path3-8"
       inkscape:flatsided="true"
       sodipodi:sides="6"
       sodipodi:cx="18.134819"
       sodipodi:cy="20.647884"
       sodipodi:r1="21.123329"
       sodipodi:r2="5.4706717"
       sodipodi:arg1="1.5707963"
       sodipodi:arg2="2.0943951"
       inkscape:rounded="-8.6736174e-17"
       inkscape:randomized="2.7755576e-17"
       d="M 18.13482,41.771214 -0.15852035,31.209549 -0.15852092,10.08622 18.134818,-0.47544479 36.428158,10.086219 l 10e-7,21.123329 z"
       transform="matrix(0.98355213,-7.1452527e-4,7.1452167e-4,0.98355708,11.991763,5.1194756)" />
  </g>
  <g
     inkscape:groupmode="layer"
     id="layer2"
     inkscape:label="Layer 2">
    <path
       sodipodi:type="star"
       style="fill:#000000;stroke-width:0.264999"
       id="path3-1"
       inkscape:flatsided="true"
       sodipodi:sides="6"
       sodipodi:cx="18.134819"
       sodipodi:cy="20.647884"
       sodipodi:r1="21.123329"
       sodipodi:r2="5.4706717"
       sodipodi:arg1="1.5707963"
       sodipodi:arg2="2.0943951"
       inkscape:rounded="-8.6736174e-17"
       inkscape:randomized="2.7755576e-17"
       d="M 18.13482,41.771214 -0.15852035,31.209549 -0.15852092,10.08622 18.134818,-0.47544479 36.428158,10.086219 l 10e-7,21.123329 z"
       transform="matrix(0.16392535,-1.1908695e-4,1.1908695e-4,0.16392535,3.5247845,11.680097)" />
    <path
       sodipodi:type="star"
       style="fill:#000000;stroke-width:0.264999"
       id="path3-1-2"
       inkscape:flatsided="true"
       sodipodi:sides="6"
       sodipodi:cx="18.134819"
       sodipodi:cy="20.647884"
       sodipodi:r1="21.123329"
       sodipodi:r2="5.4706717"
       sodipodi:arg1="1.5707963"
       sodipodi:arg2="2.0943951"
       inkscape:rounded="-8.6736174e-17"
       inkscape:randomized="2.7755576e-17"
       d="M 18.13482,41.771214 -0.15852035,31.209549 -0.15852092,10.08622 18.134818,-0.47544479 36.428158,10.086219 l 10e-7,21.123329 z"
       transform="matrix(0.16392535,-1.1908695e-4,1.1908695e-4,0.16392535,9.675459,11.656711)" />
    <path
       sodipodi:type="star"
       style="fill:#000000;stroke-width:0.264999"
       id="path3-1-2-2"
       inkscape:flatsided="true"
       sodipodi:sides="6"
       sodipodi:cx="18.134819"
       sodipodi:cy="20.647884"
       sodipodi:r1="21.123329"
       sodipodi:r2="5.4706717"
       sodipodi:arg1="1.5707963"
       sodipodi:arg2="2.0943951"
       inkscape:rounded="-8.6736174e-17"
       inkscape:randomized="2.7755576e-17"
       d="M 18.13482,41.771214 -0.15852035,31.209549 -0.15852092,10.08622 18.134818,-0.47544479 36.428158,10.086219 l 10e-7,21.123329 z"
       transform="matrix(0.16392535,-1.1908695e-4,1.1908695e-4,0.16392535,12.817383,6.3573276)" />
    <path
       sodipodi:type="star"
       style="fill:#000000;stroke-width:0.264999"
       id="path3-1-2-2-9"
       inkscape:flatsided="true"
       sodipodi:sides="6"
       sodipodi:cx="18.134819"
       sodipodi:cy="20.647884"
       sodipodi:r1="21.123329"
       sodipodi:r2="5.4706717"
       sodipodi:arg1="1.5707963"
       sodipodi:arg2="2.0943951"
       inkscape:rounded="-8.6736174e-17"
       inkscape:randomized="2.7755576e-17"
       d="M 18.13482,41.771214 -0.15852035,31.209549 -0.15852092,10.08622 18.134818,-0.47544479 36.428158,10.086219 l 10e-7,21.123329 z"
       transform="matrix(0.16392535,-1.1908695e-4,1.1908695e-4,0.16392535,28.456462,11.639567)" />
    <path
       sodipodi:type="star"
       style="fill:#000000;stroke-width:0.264999"
       id="path3-1-6"
       inkscape:flatsided="true"
       sodipodi:sides="6"
       sodipodi:cx="18.134819"
       sodipodi:cy="20.647884"
       sodipodi:r1="21.123329"
       sodipodi:r2="5.4706717"
       sodipodi:arg1="1.5707963"
       sodipodi:arg2="2.0943951"
       inkscape:rounded="-8.6736174e-17"
       inkscape:randomized="2.7755576e-17"
       d="M 18.13482,41.771214 -0.15852035,31.209549 -0.15852092,10.08622 18.134818,-0.47544479 36.428158,10.086219 l 10e-7,21.123329 z"
       transform="matrix(-0.16392535,1.1908695e-4,-1.1908695e-4,-0.16392535,37.481103,23.749897)" />
    <path
       sodipodi:type="star"
       style="fill:#000000;stroke-width:0.264999"
       id="path3-1-2-8"
       inkscape:flatsided="true"
       sodipodi:sides="6"
       sodipodi:cx="18.134819"
       sodipodi:cy="20.647884"
       sodipodi:r1="21.123329"
       sodipodi:r2="5.4706717"
       sodipodi:arg1="1.5707963"
       sodipodi:arg2="2.0943951"
       inkscape:rounded="-8.6736174e-17"
       inkscape:randomized="2.7755576e-17"
       d="M 18.13482,41.771214 -0.15852035,31.209549 -0.15852092,10.08622 18.134818,-0.47544479 36.428158,10.086219 l 10e-7,21.123329 z"
       transform="matrix(-0.16392535,1.1908695e-4,-1.1908695e-4,-0.16392535,31.32547,23.749897)" />
    <path
       sodipodi:type="star"
       style="fill:#ffffff;stroke-width:0.264999"
       id="path3-1-2-8-4"
       inkscape:flatsided="true"
       sodipodi:sides="6"
       sodipodi:cx="18.134819"
       sodipodi:cy="20.647884"
       sodipodi:r1="21.123329"
       sodipodi:r2="5.4706717"
       sodipodi:arg1="1.5707963"
       sodipodi:arg2="2.0943951"
       inkscape:rounded="-8.6736174e-17"
       inkscape:randomized="2.7755576e-17"
       d="M 18.13482,41.771214 -0.15852035,31.209549 -0.15852092,10.08622 18.134818,-0.47544479 36.428158,10.086219 l 10e-7,21.123329 z"
       transform="matrix(-0.15119346,1.098376e-4,-1.098376e-4,-0.15119346,31.090834,23.493462)" />
    <path
       sodipodi:type="star"
       style="fill:#000000;stroke-width:0.264999"
       id="path3-1-2-8-38"
       inkscape:flatsided="true"
       sodipodi:sides="6"
       sodipodi:cx="18.134819"
       sodipodi:cy="20.647884"
       sodipodi:r1="21.123329"
       sodipodi:r2="5.4706717"
       sodipodi:arg1="1.5707963"
       sodipodi:arg2="2.0943951"
       inkscape:rounded="-8.6736174e-17"
       inkscape:randomized="2.7755576e-17"
       d="M 18.13482,41.771214 -0.15852035,31.209549 -0.15852092,10.08622 18.134818,-0.47544479 36.428158,10.086219 l 10e-7,21.123329 z"
       transform="matrix(-0.16392535,1.1908695e-4,-1.1908695e-4,-0.16392535,37.733476,33.972113)" />
    <path
       sodipodi:type="star"
       style="fill:#ffffff;stroke-width:0.264999"
       id="path3-1-2-8-4-9"
       inkscape:flatsided="true"
       sodipodi:sides="6"
       sodipodi:cx="18.134819"
       sodipodi:cy="20.647884"
       sodipodi:r1="21.123329"
       sodipodi:r2="5.4706717"
       sodipodi:arg1="1.5707963"
       sodipodi:arg2="2.0943951"
       inkscape:rounded="-8.6736174e-17"
       inkscape:randomized="2.7755576e-17"
       d="M 18.13482,41.771214 -0.15852035,31.209549 -0.15852092,10.08622 18.134818,-0.47544479 36.428158,10.086219 l 10e-7,21.123329 z"
       transform="matrix(-0.15119346,1.098376e-4,-1.098376e-4,-0.15119346,37.49884,33.715678)" />
    <path
       sodipodi:type="star"
       style="fill:#000000;stroke-width:0.264999"
       id="path3-1-2-8-3"
       inkscape:flatsided="true"
       sodipodi:sides="6"
       sodipodi:cx="18.134819"
       sodipodi:cy="20.647884"
       sodipodi:r1="21.123329"
       sodipodi:r2="5.4706717"
       sodipodi:arg1="1.5707963"
       sodipodi:arg2="2.0943951"
       inkscape:rounded="-8.6736174e-17"
       inkscape:randomized="2.7755576e-17"
       d="M 18.13482,41.771214 -0.15852035,31.209549 -0.15852092,10.08622 18.134818,-0.47544479 36.428158,10.086219 l 10e-7,21.123329 z"
       transform="matrix(-0.16392535,1.1908695e-4,-1.1908695e-4,-0.16392535,9.5219878,29.139074)" />
    <path
       sodipodi:type="star"
       style="fill:#ffffff;stroke-width:0.264999"
       id="path3-1-2-8-4-4"
       inkscape:flatsided="true"
       sodipodi:sides="6"
       sodipodi:cx="18.134819"
       sodipodi:cy="20.647884"
       sodipodi:r1="21.123329"
       sodipodi:r2="5.4706717"
       sodipodi:arg1="1.5707963"
       sodipodi:arg2="2.0943951"
       inkscape:rounded="-8.6736174e-17"
       inkscape:randomized="2.7755576e-17"
       d="M 18.13482,41.771214 -0.15852035,31.209549 -0.15852092,10.08622 18.134818,-0.47544479 36.428158,10.086219 l 10e-7,21.123329 z"
       transform="matrix(-0.15119346,1.098376e-4,-1.098376e-4,-0.15119346,9.2873518,28.882639)" />
    <path
       sodipodi:type="star"
       style="fill:#000000;stroke-width:0.264999"
       id="path3-1-2-8-3-7"
       inkscape:flatsided="true"
       sodipodi:sides="6"
       sodipodi:cx="18.134819"
       sodipodi:cy="20.647884"
       sodipodi:r1="21.123329"
       sodipodi:r2="5.4706717"
       sodipodi:arg1="1.5707963"
       sodipodi:arg2="2.0943951"
       inkscape:rounded="-8.6736174e-17"
       inkscape:randomized="2.7755576e-17"
       d="M 18.13482,41.771214 -0.15852035,31.209549 -0.15852092,10.08622 18.134818,-0.47544479 36.428158,10.086219 l 10e-7,21.123329 z"
       transform="matrix(-0.16392535,1.1908695e-4,-1.1908695e-4,-0.16392535,12.624631,34.486606)" />
    <path
       sodipodi:type="star"
       style="fill:#ffffff;stroke-width:0.264999"
       id="path3-1-2-8-4-4-4"
       inkscape:flatsided="true"
       sodipodi:sides="6"
       sodipodi:cx="18.134819"
       sodipodi:cy="20.647884"
       sodipodi:r1="21.123329"
       sodipodi:r2="5.4706717"
       sodipodi:arg1="1.5707963"
       sodipodi:arg2="2.0943951"
       inkscape:rounded="-8.6736174e-17"
       inkscape:randomized="2.7755576e-17"
       d="M 18.13482,41.771214 -0.15852035,31.209549 -0.15852092,10.08622 18.134818,-0.47544479 36.428158,10.086219 l 10e-7,21.123329 z"
       transform="matrix(-0.15119346,1.098376e-4,-1.098376e-4,-0.15119346,12.389995,34.230171)" />
    <path
       sodipodi:type="star"
       style="fill:#000000;stroke-width:0.264999"
       id="path3-1-2-8-3-3"
       inkscape:flatsided="true"
       sodipodi:sides="6"
       sodipodi:cx="18.134819"
       sodipodi:cy="20.647884"
       sodipodi:r1="21.123329"
       sodipodi:r2="5.4706717"
       sodipodi:arg1="1.5707963"
       sodipodi:arg2="2.0943951"
       inkscape:rounded="-8.6736174e-17"
       inkscape:randomized="2.7755576e-17"
       d="M 18.13482,41.771214 -0.15852035,31.209549 -0.15852092,10.08622 18.134818,-0.47544479 36.428158,10.086219 l 10e-7,21.123329 z"
       transform="matrix(-0.16392535,1.1908695e-4,-1.1908695e-4,-0.16392535,18.849932,34.470084)" />
    <path
       sodipodi:type="star"
       style="fill:#ffffff;stroke-width:0.264999"
       id="path3-1-2-8-4-4-1"
       inkscape:flatsided="true"
       sodipodi:sides="6"
       sodipodi:cx="18.134819"
       sodipodi:cy="20.647884"
       sodipodi:r1="21.123329"
       sodipodi:r2="5.4706717"
       sodipodi:arg1="1.5707963"
       sodipodi:arg2="2.0943951"
       inkscape:rounded="-8.6736174e-17"
       inkscape:randomized="2.7755576e-17"
       d="M 18.13482,41.771214 -0.15852035,31.209549 -0.15852092,10.08622 18.134818,-0.47544479 36.428158,10.086219 l 10e-7,21.123329 z"
       transform="matrix(-0.15119346,1.098376e-4,-1.098376e-4,-0.15119346,18.615296,34.213649)" />
    <path
       sodipodi:type="star"
       style="fill:#000000;stroke-width:0.264999"
       id="path3-1-2-2-5"
       inkscape:flatsided="true"
       sodipodi:sides="6"
       sodipodi:cx="18.134819"
       sodipodi:cy="20.647884"
       sodipodi:r1="21.123329"
       sodipodi:r2="5.4706717"
       sodipodi:arg1="1.5707963"
       sodipodi:arg2="2.0943951"
       inkscape:rounded="-8.6736174e-17"
       inkscape:randomized="2.7755576e-17"
       d="M 18.13482,41.771214 -0.15852035,31.209549 -0.15852092,10.08622 18.134818,-0.47544479 36.428158,10.086219 l 10e-7,21.123329 z"
       transform="matrix(-0.16392535,1.1908695e-4,-1.1908695e-4,-0.16392535,28.277874,29.073035)" />
    <path
       sodipodi:type="star"
       style="fill:#000000;stroke-width:0.264999"
       id="path3-1-2-2-5-9"
       inkscape:flatsided="true"
       sodipodi:sides="6"
       sodipodi:cx="18.134819"
       sodipodi:cy="20.647884"
       sodipodi:r1="21.123329"
       sodipodi:r2="5.4706717"
       sodipodi:arg1="1.5707963"
       sodipodi:arg2="2.0943951"
       inkscape:rounded="-8.6736174e-17"
       inkscape:randomized="2.7755576e-17"
       d="M 18.13482,41.771214 -0.15852035,31.209549 -0.15852092,10.08622 18.134818,-0.47544479 36.428158,10.086219 l 10e-7,21.123329 z"
       transform="matrix(-0.16392535,1.1908695e-4,-1.1908695e-4,-0.16392535,22.004703,39.788315)" />
    <rect
       style="fill:#000000;stroke-width:0.274887"
       id="rect4"
       width="5.8836522"
       height="0.61752617"
       x="43.274921"
       y="-3.2144833"
       transform="rotate(45)" />
    <rect
       style="fill:#000000;stroke-width:0.276993"
       id="rect4-7"
       width="5.9287195"
       height="0.62225628"
       x="-6.2978263"
       y="45.936543"
       transform="matrix(-0.70173171,0.7124413,0.70173171,0.7124413,0,0)" />
    <rect
       style="fill:#000000;stroke-width:0.276369"
       id="rect4-1"
       width="5.9153695"
       height="0.62085509"
       x="19.781513"
       y="13.204361"
       transform="matrix(0.70331536,0.71087798,-0.70331536,0.71087798,0,0)" />
    <rect
       style="fill:#000000;stroke-width:0.276369"
       id="rect4-7-3"
       width="5.9153695"
       height="0.62085509"
       x="10.5042"
       y="22.458082"
       transform="matrix(-0.70331536,0.71087798,0.70331536,0.71087798,0,0)" />
  </g>
</svg>
