<?xml version="1.0" encoding="UTF-8" standalone="no"?>
<!-- Created with Inkscape (http://www.inkscape.org/) -->

<svg
   width="40mm"
   height="46.168655mm"
   viewBox="0 0 40 46.168656"
   version="1.1"
   id="svg1"
   inkscape:version="1.4.2 (f4327f4, 2025-05-13)"
   sodipodi:docname="Talent Token_Giant_Killer.svg"
   xmlns:inkscape="http://www.inkscape.org/namespaces/inkscape"
   xmlns:sodipodi="http://sodipodi.sourceforge.net/DTD/sodipodi-0.dtd"
   xmlns="http://www.w3.org/2000/svg"
   xmlns:svg="http://www.w3.org/2000/svg">
  <sodipodi:namedview
     id="namedview1"
     pagecolor="#ffffff"
     bordercolor="#000000"
     borderopacity="0.25"
     inkscape:showpageshadow="2"
     inkscape:pageopacity="0.0"
     inkscape:pagecheckerboard="0"
     inkscape:deskcolor="#d1d1d1"
     inkscape:document-units="mm"
     inkscape:zoom="4"
     inkscape:cx="47.25"
     inkscape:cy="114.375"
     inkscape:window-width="1920"
     inkscape:window-height="991"
     inkscape:window-x="-9"
     inkscape:window-y="-9"
     inkscape:window-maximized="1"
     inkscape:current-layer="layer2" />
  <defs
     id="defs1" />
  <g
     inkscape:label="Layer 1"
     inkscape:groupmode="layer"
     id="layer1"
     transform="translate(-9.8430554,-2.3308907)">
    <path
       sodipodi:type="star"
       style="fill:none;stroke-width:0.264999"
       id="path3"
       inkscape:flatsided="true"
       sodipodi:sides="6"
       sodipodi:cx="18.134819"
       sodipodi:cy="20.647884"
       sodipodi:r1="21.123329"
       sodipodi:r2="5.4706717"
       sodipodi:arg1="1.5707963"
       sodipodi:arg2="2.0943951"
       inkscape:rounded="-8.6736174e-17"
       inkscape:randomized="2.7755576e-17"
       d="M 18.13482,41.771214 -0.15852035,31.209549 -0.15852092,10.08622 18.134818,-0.47544479 36.428158,10.086219 l 10e-7,21.123329 z"
       transform="matrix(1.0928357,-7.9391297e-4,7.9391297e-4,1.0928357,10.008285,2.8648712)" />
    <path
       sodipodi:type="star"
       style="fill:none;stroke-width:0.264999"
       id="path3-8"
       inkscape:flatsided="true"
       sodipodi:sides="6"
       sodipodi:cx="18.134819"
       sodipodi:cy="20.647884"
       sodipodi:r1="21.123329"
       sodipodi:r2="5.4706717"
       sodipodi:arg1="1.5707963"
       sodipodi:arg2="2.0943951"
       inkscape:rounded="-8.6736174e-17"
       inkscape:randomized="2.7755576e-17"
       d="M 18.13482,41.771214 -0.15852035,31.209549 -0.15852092,10.08622 18.134818,-0.47544479 36.428158,10.086219 l 10e-7,21.123329 z"
       transform="matrix(0.98355213,-7.1452527e-4,7.1452167e-4,0.98355708,11.991763,5.1194756)" />
  </g>
  <g
     inkscape:groupmode="layer"
     id="layer2"
     inkscape:label="Layer 2">
    <path
       style="fill:none;stroke-width:0.324727"
       d="M 12.942784,37.143402 30.966085,19.120098 27.849066,16.003077 24.890583,18.961561 H 20.696019 L 7.4740269,32.183553 12.67797,37.363432 Z"
       id="path1" />
    <path
       style="fill:none;stroke-width:0.324727"
       d="M 13.667623,32.757765 7.0706381,8.137476 l 4.2579279,-1.14091 1.082879,4.041364 3.632599,2.097282 0.863952,17.734172 -3.121053,2.211337 z"
       id="path1-3"
       sodipodi:nodetypes="cccccccc" />
    <path
       style="fill:none;stroke-width:0.264999"
       d="m 21.795052,14.783594 5.9617,-1.597433 5.112298,2.951587 4.46664,-4.46664 L 20.07526,1.1244792 14.750521,4.1010416 13.787728,4.6569103 13.389825,4.8866398 15.954099,6.3671243 V 11.48457 l 5.761543,3.326429 z"
       id="path2" />
    <path
       style="fill:none;stroke-width:0.343932"
       d="m 18.61549,40.401348 1.295324,-2.243571 1.243589,2.153963 0.03856,0.06679 z"
       id="path4" />
    <path
       style="fill:none;stroke-width:0.343932"
       d="m 26.556695,26.452945 1.295324,-2.243571 1.243589,2.153963 0.03856,0.06679 z"
       id="path4-1" />
    <path
       style="fill:none;stroke-width:0.690716"
       d="m 19.824817,38.912962 8.071919,-14.150175 0.591897,0.582567 -8.128719,14.079357 z"
       id="path5" />
  </g>
</svg>
